<?xml version="1.0" encoding="UTF-8" standalone="no"?>
<!-- Generator: Adobe Illustrator 19.0.0, SVG Export Plug-In . SVG Version: 6.00 Build 0)  -->

<svg
   version="1.1"
   id="Layer_1"
   x="0px"
   y="0px"
   viewBox="0 0 359.89999 134.31888"
   xml:space="preserve"
   sodipodi:docname="Dunkin-Donuts-01.svg"
   width="359.89999"
   height="134.31888"
   inkscape:version="1.1.1 (c3084ef, 2021-09-22)"
   xmlns:inkscape="http://www.inkscape.org/namespaces/inkscape"
   xmlns:sodipodi="http://sodipodi.sourceforge.net/DTD/sodipodi-0.dtd"
   xmlns="http://www.w3.org/2000/svg"
   xmlns:svg="http://www.w3.org/2000/svg"><defs
   id="defs1392" /><sodipodi:namedview
   id="namedview1390"
   pagecolor="#ffffff"
   bordercolor="#666666"
   borderopacity="1.0"
   inkscape:pageshadow="2"
   inkscape:pageopacity="0"
   inkscape:pagecheckerboard="0"
   showgrid="false"
   fit-margin-top="0"
   fit-margin-left="0"
   fit-margin-right="0"
   fit-margin-bottom="0"
   inkscape:zoom="1.438"
   inkscape:cx="179.76356"
   inkscape:cy="67.107093"
   inkscape:window-width="1920"
   inkscape:window-height="1027"
   inkscape:window-x="0"
   inkscape:window-y="25"
   inkscape:window-maximized="1"
   inkscape:current-layer="Layer_1" />
<style
   type="text/css"
   id="style1358">
	.st0{fill:#FFFFFF;}
	.st1{fill:#F5821F;}
	.st2{fill:#E11383;}
	.st3{fill:#683817;}
</style>
<g
   id="XMLID_1_"
   transform="translate(-70.2,-182.78112)">
	<path
   class="st0"
   d="m 280.2,217.1 v 0 l 0.1,-0.1 -0.1,0.1 M 169.9,314 v 0 l -0.1,-0.1 z m 150.7,-98.2 v 0 l 0.1,0.2 z m 89.1,45.8 c 2.2,-2.9 2.6,-5.5 2.6,-9.5 v -12.7 c 1.5,1.2 3.1,1.7 4.3,2 1.9,0.4 8.3,0.8 11.9,-8.5 1,-2.7 1.6,-5.9 1.6,-8.4 0,-6.1 -4.3,-12.6 -11.3,-12.6 -3.8,0 -6.8,2.2 -8.8,5.2 l -0.5,-0.7 -0.1,-0.1 c -2.3,-2.8 -5.7,-4.4 -9.2,-4.4 -4,0 -7.8,2 -9.9,5.3 -0.8,1.3 -1.4,2.5 -1.7,3.8 -1.9,-2.3 -3.5,-4.3 -3.5,-4.3 -2.5,-3.2 -5.5,-4.7 -9.1,-4.7 -5,0 -9,2.6 -11,6.5 -0.5,-0.9 -1,-1.7 -1.8,-2.6 -2.3,-2.6 -5.5,-4 -9,-4 -3.4,0 -6.8,1.4 -8.9,4 -0.7,0.7 -1.1,1.4 -1.6,2.1 -2.1,-3.6 -6.1,-6.1 -10.5,-6.1 -4,0 -7.6,2 -10,5.5 0,0 -0.3,0.4 -0.7,1.1 -0.5,-0.8 -1,-1.7 -1.7,-2.5 -2.3,-2.6 -5.6,-4.1 -9.1,-4.1 -4.8,0 -8.8,2.6 -10.7,6.7 -0.4,-0.8 -0.8,-1.5 -1.4,-2.3 l -0.1,-0.1 c -2.3,-2.8 -5.7,-4.4 -9.2,-4.4 -4,0 -7.7,2 -9.9,5.3 -0.8,1.3 -1.4,2.5 -1.7,3.8 -1.9,-2.3 -3.5,-4.3 -3.5,-4.3 -2.6,-3.2 -5.6,-4.7 -9.1,-4.7 -4.8,0 -8.8,2.4 -10.8,6.2 -0.4,-0.6 -0.8,-1.2 -1.3,-1.8 -2.3,-2.7 -5.9,-4.4 -9.4,-4.4 -3.6,0 -7.1,1.7 -9.4,4.6 -0.9,1.1 -1.4,2.1 -1.9,3.2 -0.5,-1.3 -1.3,-2.7 -2.5,-4 -2.3,-2.4 -5.5,-3.8 -8.8,-3.8 -3.5,0 -7.2,1.8 -9.4,4.7 l -0.1,0.1 c -1.9,2.5 -2.3,4.6 -2.5,7.8 -1.3,-1.9 -2.9,-3.8 -4.6,-5.3 -5.2,-4.6 -11.4,-6.8 -19.2,-6.8 h -8.9 c -6.2,0 -10.8,2.9 -12.5,8.1 -0.4,1.3 -0.5,2.1 -0.6,4 H 164 C 162.7,217.4 156.5,212 149.1,212 h -41 c -0.3,-1.6 -0.9,-2.9 -1.6,-4.2 2.3,0.4 4.8,0.1 7.2,-1.3 l -1.5,0.4 1.9,-0.7 h 0.1 v 0 l 0.1,-0.1 c 3.3,-2.5 5.2,-6.3 5.2,-10.4 0,-1.1 -0.1,-2.1 -0.4,-3.1 -1.3,-5.2 -5.3,-8.8 -10.5,-9.7 -2.5,-0.4 -7.7,0.1 -11.9,3.2 -3.2,2.4 -5.3,5.9 -5.8,10.1 -0.1,0.7 -0.2,1.3 -0.2,1.9 0,1.5 0.3,2.9 0.7,4.1 -4.2,-2 -9.1,-1.6 -13.6,1.5 h -0.1 c -4.7,3.4 -6.1,7.3 -6.5,10 -0.2,2 0,4.1 0.8,6 -1.1,2.3 -1.8,4.7 -1.8,7.3 v 73.9 c 0,8.4 6.8,15.3 15.2,15.3 h 63.7 c 7.4,0 13.6,-5.3 14.9,-12.3 h 0.7 v 0.9 c 0.1,1 0.1,1.7 0.4,2.5 0.8,2.8 2.4,5 4.9,6.6 2.5,1.6 4.9,2 8.8,2 h 6.1 c 3.2,0 6.2,-0.2 8.3,-0.6 h 0.1 c 4.7,-1 9.2,-3.3 12.7,-6.5 l 0.9,-0.9 0.1,-0.1 c 1.3,-1.3 2.5,-2.8 3.4,-4.4 0.9,1.5 1.9,2.9 3.1,4.3 5.3,5.9 12.9,9.4 20.9,9.4 7.9,0 15.5,-3.4 20.9,-9.4 l 0.6,-0.8 c 0.4,1.6 1,3.1 2,4.5 l 0.1,0.1 c 2.3,2.9 5.9,4.7 9.5,4.7 3.5,0 6.9,-1.6 9.2,-4.4 l 0.1,-0.1 c 1.2,-1.6 2,-3.1 2.3,-4.9 l 3.6,4.6 c 2.4,3.1 5.6,4.8 9.5,4.8 3.7,0 7.2,-1.7 9.4,-4.5 1,-1.4 1.7,-2.8 2.1,-4.4 v 0 l 0.1,0.1 c 4.4,6 11.5,9.6 18.8,9.6 6.7,0 13,-2.9 17.5,-8.1 l 1.3,-1.6 c 3.1,-4.1 4.5,-9 4.5,-15.3 v -7.4 c 1.1,0.4 2.4,0.6 3.8,0.6 0,5.9 0,17.5 0,17.5 l 0.1,2 c 0.1,2.6 0.8,4.4 2,6.3 l 0.1,0.2 c 2.3,3.1 5.9,4.9 9.8,4.9 4.2,0 7.8,-2 10,-5.5 1.1,-1.8 1.7,-3.6 1.9,-5.8 0,0 0,-0.8 0.1,-1.4 h 1.3 c 0.1,1 0.5,1.9 0.9,2.9 2.9,6.4 10.8,10.6 20.2,10.6 6.7,0 11.8,-1.9 15.7,-5.8 1.3,-1.4 2.4,-2.9 3.3,-4.5 1.5,-2.9 2.3,-6.1 2.3,-9.3 0,-5.3 -2,-10.2 -5.5,-13.4 1.7,-1.5 3,-3.5 3.5,-5.9 1.3,1 2.9,1.6 4.6,1.6 3.5,0 6.5,-2.5 7.1,-6 v 0 -0.3 l 0.1,-1 c 0,-4.1 -3.2,-7.3 -7.3,-7.3 -2.8,0 -5.2,1.6 -6.5,3.8 -1.3,-2 -3.4,-3.8 -5.8,-5 0.7,-0.5 1.4,-1.3 2.1,-2.2 z m 10,14.2 v 0 z m -29.4,-58.7 v 0 z m -45.2,-1.2 v 0 z"
   id="path1360" />
	<path
   class="st1"
   d="m 244.4,216.6 c -2.2,0 -4.3,1 -5.6,2.8 -1.3,1.6 -1.6,2.6 -1.6,5.9 v 17.6 c 0,3.1 -1.4,4.9 -4,4.9 -2.5,0 -4,-2 -4,-5.1 v -17.4 c 0,-3.2 -0.5,-4.8 -1.9,-6.3 -1.4,-1.4 -3.4,-2.3 -5.4,-2.3 -2.1,0 -4.3,1.1 -5.8,2.8 -1.3,1.7 -1.5,2.7 -1.5,6.9 v 15.5 c 0,5.9 0.8,8.9 3.6,12.7 3.5,4.8 9.2,7.6 15,7.6 5.3,0 10.4,-2.4 14,-6.4 3.1,-3.6 4.6,-7.9 4.6,-13.9 v -15.7 c 0,-4 -0.3,-5.3 -1.7,-7 -1.3,-1.5 -3.5,-2.6 -5.7,-2.6 M 208,231.2 c -1.2,-3.3 -3.2,-6.2 -5.9,-8.6 -4.3,-3.8 -9.4,-5.6 -16,-5.6 h -8.9 c -4.2,0 -7,1.7 -8,4.8 -0.3,1 -0.3,1.4 -0.3,5.1 v 24.3 c 0,3.1 0,3.8 0.2,4.8 0.4,1.7 1.4,2.9 3.1,4 1.4,0.9 2.7,1.2 6.2,1.2 h 6.1 c 3.1,0 5.7,-0.2 7.5,-0.5 3.8,-0.8 7.6,-2.7 10.4,-5.3 4.5,-4.2 7.1,-10.1 7.1,-16.2 -0.1,-2.9 -0.6,-5.6 -1.5,-8 z m -18.5,0 0.7,0.3 c 2.9,1.4 4.7,4.4 4.7,7.7 0,2.7 -1.4,5.4 -3.6,7 -1.7,1.2 -2.9,1.4 -7.9,1.4 v -17.1 h 1.2 c 2.3,0 3.7,0.2 4.9,0.7 z m 100.6,-14.6 c -2.4,0 -4.7,1.3 -5.9,3.1 -1.1,1.5 -1.4,2.9 -1.4,5.8 v 8.2 l -2.1,-2.6 -9.5,-11.6 c -1.6,-2 -3.3,-2.9 -5.4,-2.9 -4.6,0.1 -7.6,3.2 -7.6,7.9 v 28 c 0,3.2 0.3,4.6 1.5,6.2 1.4,1.8 3.6,2.9 5.9,2.9 2.2,0 4.3,-1 5.6,-2.6 1.3,-1.6 1.6,-2.9 1.6,-5.8 v -9.3 l 11.5,14.8 c 1.5,2 3.5,3 5.8,3 2.3,0 4.3,-1 5.7,-2.7 1.3,-1.6 1.6,-3.1 1.6,-6.6 v -27 c 0,-2.7 -0.5,-4.3 -1.7,-5.8 -1.4,-2 -3.4,-3 -5.6,-3 z m 41.8,21.9 5.1,-7.4 2.3,-3.4 c 0.8,-1.1 1.1,-2.5 1.1,-3.8 0,-3.9 -3.4,-7.3 -7.4,-7.3 -2.5,0 -4.6,1.2 -6,3.4 l -7.6,11.2 -0.5,0.8 v -7 c 0,-2.6 -0.5,-4.3 -2,-5.8 -1.3,-1.5 -3.4,-2.5 -5.5,-2.5 -4.4,0 -7.3,3.3 -7.3,8.2 v 28.4 c 0,5.1 2.9,8.3 7.4,8.3 4.4,0 7.3,-3.3 7.3,-8.4 v -7.7 l 11,13.9 c 1,1.3 3.1,2.2 5.1,2.2 4,0 7.3,-3.4 7.3,-7.4 0,-1.5 -0.5,-2.8 -1.4,-4 z m 68.2,-21.9 c -2.4,0 -4.7,1.3 -5.9,3.1 -1.1,1.5 -1.4,2.9 -1.4,5.8 v 8.2 l -2.1,-2.6 -9.4,-11.6 c -1.7,-2 -3.3,-2.9 -5.4,-2.9 -4.6,0 -7.6,3.1 -7.6,7.8 v 28 c 0,3.2 0.3,4.6 1.5,6.2 1.4,1.8 3.6,2.8 5.9,2.8 2.2,0 4.3,-1 5.6,-2.6 1.3,-1.6 1.6,-2.9 1.6,-5.8 v -9.2 l 11.6,14.8 c 1.5,2 3.4,3 5.8,3 2.3,0 4.4,-1 5.7,-2.7 1.3,-1.6 1.6,-3.1 1.6,-6.6 v -27 c 0,-2.7 -0.5,-4.3 -1.7,-5.8 -1.5,-1.9 -3.5,-2.9 -5.8,-2.9 z m 18.7,0 c -3.8,0 -6.5,4.6 -6.5,8.5 0,1.7 0,4 0.4,6.1 0.5,2.6 1.8,5 4.7,5.5 3.1,0.6 5.2,-2.3 6.5,-5.5 v 0 c 0.9,-2.4 1.4,-5.1 1.4,-6.8 0,-3.8 -2.7,-7.8 -6.5,-7.8 z m -64.7,0 c -2.1,0 -4.1,0.9 -5.4,2.4 -1.5,1.6 -1.9,3 -1.9,6.7 v 27.4 c 0,3.1 0.4,4.6 1.9,6.1 1.3,1.4 3.4,2.3 5.4,2.3 1.9,0 4,-0.9 5.4,-2.5 1.4,-1.4 1.9,-3.1 1.9,-5.9 v -27.4 c 0,-3.6 -0.5,-5.1 -2,-6.8 -1.3,-1.5 -3.2,-2.3 -5.3,-2.3 z"
   id="path1362" />
	<path
   id="XMLID_25_"
   class="st2"
   d="m 340.9,273.4 c -0.1,-1.9 -0.6,-2.8 -1.6,-4 -1.3,-1.6 -3.5,-2.6 -5.6,-2.6 -2.2,0 -4.2,1 -5.6,2.8 -1,1.2 -1.4,2 -1.5,3.9 0,0.5 -0.1,1.1 -0.1,1.9 V 293 c 0,3.1 -1.5,5 -4.1,5 -2.6,0 -4.1,-2 -4.1,-5.3 v -17.5 c 0,-0.7 0,-1.4 -0.1,-1.9 -0.2,-2 -0.8,-3.1 -1.9,-4.4 -1.3,-1.4 -3.3,-2.3 -5.3,-2.3 -2.1,0 -4.3,1.1 -5.7,2.8 -0.9,1.1 -1.3,2 -1.4,3.8 -0.1,0.8 -0.1,1.7 -0.1,3 v 15.6 c 0,5.8 0.8,8.8 3.4,12.4 l 0.1,0.1 c 3.5,4.7 9.1,7.7 14.9,7.7 5.2,0 10.4,-2.4 14,-6.5 0.4,-0.5 0.8,-0.9 1,-1.3 2.4,-3.3 3.5,-7.3 3.5,-12.5 v -15.8 c 0.3,-0.8 0.3,-1.7 0.2,-2.5" />
	<path
   class="st2"
   d="m 420.5,272.6 c 1.1,0 2,-0.5 2,-1.7 0,-0.5 -0.2,-1.1 -0.8,-1.4 -0.5,-0.3 -1,-0.3 -1.6,-0.3 h -2.8 v 6.4 h 0.8 v -2.9 h 1.4 l 0.4,0.8 1.4,2.2 h 0.9 l -1.4,-2.2 -0.3,-0.9 m -1.1,-0.6 h -1.2 v -2.3 h 1.8 c 0.8,0 1.6,0.1 1.6,1.1 0.1,1.4 -1.3,1.2 -2.2,1.2 z"
   id="path1365" />
	<path
   id="XMLID_22_"
   class="st2"
   d="m 425.2,273.4 c 0.1,-0.3 0.1,-0.7 0.1,-1 0,-3.2 -2.5,-5.7 -5.7,-5.7 -3.2,0 -5.8,2.5 -5.8,5.7 0,0.4 0,0.7 0.1,1 0.5,2.7 2.9,4.7 5.6,4.7 2.9,0 5.2,-2 5.7,-4.7 h -0.7 c -0.4,2.3 -2.5,4.1 -4.9,4.1 -2.5,0 -4.5,-1.7 -5,-4.1 -0.1,-0.3 -0.1,-0.7 -0.1,-1 0,-2.8 2.3,-5 5,-5 2.8,0 5,2.3 5,5 0,0.4 0,0.7 -0.1,1 h 0.8" />
	<path
   class="st2"
   d="m 203.4,304.5 c 4,-4.1 6.3,-9.7 6.3,-15.4 0,-2.7 -0.5,-5.4 -1.4,-7.9 v 0 c -1.1,-2.9 -2.9,-5.6 -5.1,-7.8 v 0 l -0.8,-0.7 c -4.3,-3.8 -9.4,-5.6 -16,-5.6 h -9 c -4.2,0 -6.9,1.6 -7.9,4.7 -0.1,0.5 -0.2,0.8 -0.3,1.5 v 0 c -0.1,0.7 -0.1,1.7 -0.1,3.5 v 24.4 c 0,1.6 0,2.5 0,3.1 0,0.7 0.1,1.1 0.2,1.6 0.4,1.7 1.4,2.9 3,3.9 1.3,0.9 2.6,1.2 6.1,1.2 h 6.2 c 3.1,0 5.7,-0.2 7.5,-0.5 3.8,-0.8 7.5,-2.7 10.3,-5.3 l 1,-0.7 v 0 m -19.8,-23.3 v -0.7 h 1.3 c 2.4,0 3.9,0.2 5.2,0.7 v 0 l 0.5,0.2 c 2.9,1.4 4.8,4.4 4.8,7.7 0,2.8 -1.4,5.6 -3.6,7.1 -1.7,1.2 -3,1.4 -8,1.5 h -0.1 z"
   id="path1368" />
	<path
   class="st2"
   d="m 256.1,281.2 c -1.1,-2.9 -2.7,-5.6 -4.8,-7.8 -4.3,-4.5 -10.3,-7.3 -17,-7.3 -6.7,0 -12.8,2.8 -17.1,7.3 v 0 c -2.1,2.3 -3.7,4.9 -4.7,7.7 v 0 c -0.9,2.4 -1.4,5 -1.4,7.7 0,6 2.2,11.5 5.9,15.6 v 0 c 4.2,4.8 10.4,7.8 17.4,7.8 6.8,0 13.1,-3 17.3,-7.8 3.7,-4.1 5.9,-9.5 5.9,-15.4 -0.1,-2.7 -0.6,-5.3 -1.5,-7.8 m -21.8,16.9 c -4.9,0 -8.8,-4.1 -8.8,-8.9 0,-3.5 2.2,-6.6 5.3,-7.9 1.1,-0.5 2.3,-0.7 3.5,-0.7 1.3,0 2.4,0.2 3.5,0.7 3.1,1.4 5.3,4.4 5.3,7.9 0.1,4.8 -3.9,8.9 -8.8,8.9 z"
   id="path1370" />
	<path
   id="XMLID_17_"
   class="st2"
   d="m 299.1,273.4 c -0.1,-1.6 -0.7,-2.8 -1.6,-4 -1.4,-1.6 -3.3,-2.6 -5.5,-2.6 -2.3,0 -4.6,1.3 -5.9,3.1 -0.8,1.1 -1,2 -1.2,3.5 v 0 c -0.1,0.6 -0.1,1.4 -0.1,2.2 v 8.6 l -2.5,-3.1 -6.3,-7.8 -3.1,-3.8 c -1.6,-2 -3.2,-2.9 -5.3,-2.9 -4.1,0 -7.1,2.6 -7.4,6.6 0,0.4 -0.1,0.8 -0.1,1 v 28 c 0,0.8 0,1.4 0.1,2 0.1,1.9 0.5,2.9 1.4,4.2 1.3,1.7 3.5,2.8 5.8,2.8 2.2,0 4.2,-1 5.5,-2.6 1.1,-1.3 1.5,-2.4 1.6,-4.4 0,-0.4 0,-0.9 0,-1.4 v -9.7 l 8.6,11 3.1,4 c 1.5,2 3.4,2.9 5.7,2.9 2.3,0 4.3,-1 5.6,-2.7 0.9,-1.2 1.3,-2.3 1.5,-4.3 0.1,-0.7 0.1,-1.4 0.1,-2.3 V 275 c 0.1,-0.5 0.1,-1.1 0,-1.6" />
	<path
   id="XMLID_16_"
   class="st2"
   d="m 379.9,273.4 c -0.1,-3.2 -2.5,-5.7 -5.9,-6.1 -0.4,-0.1 -0.7,-0.1 -1.3,-0.1 -0.6,0 -1.6,0 -3.7,0 h -14.7 c -5.8,0 -6.4,0.1 -7.9,0.8 -1.9,0.8 -3.5,3.2 -3.7,5.5 v 0 0.4 c 0,1.7 0.8,3.4 2,4.7 1.3,1.3 2.9,1.9 5.4,1.9 h 4.1 v 22.3 c 0,0.7 0,1.2 0.1,1.7 0.1,1.8 0.5,2.8 1.2,4 1.4,1.9 3.5,3 5.9,3 2.5,0 4.6,-1.2 5.9,-3.2 0.7,-1.1 1,-2.2 1.2,-3.8 0.1,-0.5 0.1,-1.1 0.1,-1.9 v -22.2 h 3.4 c 2.6,0 4.4,-0.5 5.5,-1.6 1.4,-1.3 2.3,-3.2 2.3,-5.2 l 0.1,-0.2" />
	<path
   id="XMLID_15_"
   class="st2"
   d="m 407.8,287 c -2,-1.7 -5.6,-3.5 -9.4,-4.7 -1.5,-0.4 -2.5,-0.9 -3.2,-1.3 v 0 c -0.9,-0.5 -1.3,-1 -1.3,-1.9 0,-1 0.8,-1.9 1.9,-1.9 0.8,0 1.6,0.4 3.2,1.6 1.5,1.1 2.6,1.8 3.8,2.2 v 0 c 0.8,0.2 1.4,0.4 2.3,0.4 0.8,0 1.4,-0.1 2,-0.4 v 0 c 2.2,-0.8 3.5,-2.9 3.5,-5.6 0,-0.8 -0.1,-1.5 -0.4,-2.2 -1.4,-4.3 -6.9,-7.4 -13.7,-7.4 -6.6,0 -11.8,2.8 -14.3,7.4 v 0 c -1.1,2 -1.8,4.4 -1.8,7 v 0.8 0 c 0.2,5.7 3.4,9.6 9.5,11.8 1.2,0.4 2.4,0.8 3.6,1.3 2.3,0.8 2.6,1 2.9,1.3 0.8,0.5 1.2,1.1 1.2,2 0,1.2 -0.8,2 -1.9,2 -1.1,0 -1.6,-0.3 -4.7,-2.8 -1.9,-1.5 -3.4,-2.1 -5.1,-2.1 -3.7,0 -6.5,2.9 -6.5,6.5 0,1.2 0.2,2.3 0.8,3.3 v 0 c 2,4.5 8.2,7.8 15.8,7.8 5.4,0 9.4,-1.5 12.3,-4.4 1,-1 1.8,-2.1 2.4,-3.4 1.1,-2.2 1.7,-4.6 1.7,-7.1 -0.2,-3.9 -1.9,-7.9 -4.6,-10.2" />
	<path
   id="XMLID_14_"
   class="st1"
   d="m 82.8,227.4 c -3.1,-0.1 -5.9,-1.3 -8,-3.3 -0.2,0.8 -0.4,1.8 -0.4,2.7 v 8.7 c 1.2,-2.5 3.9,-5.2 8.4,-8.1" />
	<path
   id="XMLID_13_"
   class="st1"
   d="m 90.6,269 c -3.5,-0.5 -5.9,-2 -6.8,-4.3 l -9,-22.7 -0.4,-0.8 V 301 c 0,5.9 4.8,10.7 10.7,10.7 h 28.1 c -1,-1 -1.8,-2.1 -2.5,-3.5 0.1,0.1 -17.1,-33.3 -20.1,-39.2" />
	<path
   id="XMLID_12_"
   class="st2"
   d="m 149.1,216.1 h -15.9 l 0.1,0.1 c 0.3,0.4 0.5,0.8 0.7,1.3 0.2,0.3 0.2,0.7 0.3,1.1 7.7,19.5 8.8,22.3 8.9,22.6 v 0 0.1 -0.1 c 0.3,0.7 0.4,1.4 0.4,2.2 0,1.8 -0.8,3.7 -2.4,5.6 1.9,6 5.5,17.9 11.8,41.3 l 0.4,1.3 v -0.1 c 2.5,8 -1.2,15.5 -9.7,20.5 h 5.5 c 5.9,0 10.7,-4.8 10.7,-10.7 V 227 c -0.1,-6.1 -4.9,-10.9 -10.8,-10.9" />
	<path
   id="XMLID_11_"
   class="st3"
   d="m 116,217.1 v 0 c -4.6,1 -10,2.6 -14.9,4.6 -5,1.9 -10.1,4.4 -14,6.9 -7,4.1 -10.6,7.9 -9.9,10.4 v 0.2 c 0,0.3 0.1,0.5 0.2,0.8 l 0.3,0.5 0.2,0.3 9,22.8 c 0.5,1.4 2.3,2.2 5.1,2.4 0.5,0.1 0.9,0.3 1.1,0.8 l 20.8,40.2 c 4,7.9 15.4,7.6 24.2,4 10,-4 14.6,-10.9 12.2,-18.6 l -0.4,-1.3 c -6.7,-24.7 -10.3,-36.5 -12.1,-42.1 -0.2,-0.5 -0.1,-1 0.3,-1.4 2,-2.1 2.6,-3.8 2.1,-5.3 l -9,-22.8 -0.1,-0.3 -0.2,-0.6 -0.4,-0.7 -0.1,-0.1 c -1.3,-2.3 -6.5,-2.5 -14.4,-0.7" />
	<path
   id="XMLID_10_"
   class="st3"
   d="m 98.3,188.8 c -2.6,1.9 -4.1,4.7 -4.7,8 -0.7,4.6 1.9,7.6 4.3,10.3 2.5,2.9 4.7,5.5 3.3,9.9 -0.1,0.4 -0.1,0.8 0.2,1.2 0.3,0.4 0.5,0.7 1,0.8 0.8,0.3 1.7,-0.2 2,-1.1 1.9,-6.1 -1.3,-9.9 -4,-12.9 -2.5,-2.9 -4,-4.8 -3.5,-7.8 0.4,-2.5 1.5,-4.4 3.4,-5.8 2.7,-2 6.2,-2.3 7.1,-2.1 3.8,0.6 5,3.5 5.3,4.7 0.2,0.8 0.2,1.7 0.2,2.5 -0.2,1.7 -1.1,3.2 -2.4,4.3 h -0.1 c -1.6,0.8 -2.9,0.8 -3.8,0 -0.8,-0.8 -0.9,-1.9 -0.6,-2.6 0.3,-0.6 1.1,-0.8 2.3,-0.7 0.4,0.1 0.8,0 1.2,-0.3 0.4,-0.2 0.6,-0.6 0.7,-1.1 0.2,-0.9 -0.4,-1.7 -1.3,-1.9 -2.6,-0.4 -4.7,0.4 -5.7,2.3 -1,2 -0.5,4.7 1.2,6.4 1.9,1.9 4.8,2 7.7,0.4 l 0.2,-0.1 c 3.2,-2.3 4.5,-6.4 3.6,-10.2 -0.9,-3.8 -3.9,-6.4 -7.9,-7.1 -1.8,0 -6.2,0.3 -9.7,2.9" />
	<path
   id="XMLID_9_"
   class="st3"
   d="m 79.3,206.3 c -3.3,2.3 -4.8,5.1 -5.1,7.8 -0.3,2.3 0.3,4.5 1.5,6.2 2.5,3.6 7.6,5.4 12.8,2 l 0.1,-0.1 c 2.7,-2 2.6,-6.1 0.8,-8.6 -1.7,-2.4 -4.5,-2.8 -7.1,-1.1 -0.8,0.5 -0.9,1.5 -0.4,2.3 0.2,0.4 0.6,0.6 1,0.7 0.5,0.1 0.8,0 1.2,-0.2 1.5,-1 2.3,-0.4 2.7,0.2 0.5,0.7 0.8,1.7 0.6,2.6 -0.1,0.7 -0.3,1.1 -0.8,1.4 -3.5,2.3 -6.7,1.1 -8.3,-1.2 -1.7,-2.6 -1.6,-6.5 2.8,-9.5 4.3,-2.9 7.4,-1.1 8.8,0.2 2.8,2.6 3.9,7 2.3,9.7 -0.5,0.8 -0.2,1.8 0.6,2.2 0.4,0.2 0.8,0.3 1.2,0.2 0.5,-0.2 0.8,-0.4 1,-0.8 2.3,-4.1 1,-10.1 -3,-13.7 -3.4,-3.1 -8.3,-3.3 -12.7,-0.3" />
	<path
   id="XMLID_8_"
   class="st0"
   d="m 124.7,223.4 c -5.3,0.6 -13.1,2.7 -20.6,5.6 -7.5,3 -14.7,7 -18.9,10.3 -2.9,0.2 -4.7,0 -5.4,-0.4 0.5,-1.8 7.7,-8.4 22.5,-14.3 14.8,-5.9 24.4,-6.2 25.9,-5.2 -0.1,0.7 -1.2,2.2 -3.5,4" />
	<path
   id="XMLID_7_"
   class="st0"
   d="m 147.2,293 c 1.9,6.5 -2.9,11.8 -10.4,14.8 -7.8,3.1 -17.3,3.3 -20.3,-2.5 -1,-2 -14,-26 -20.4,-39.4 6.5,-0.7 14.5,-3 20.3,-5.3 5.8,-2.3 13.2,-6.1 18.4,-10 4.6,14 11.7,40.2 12.4,42.4" />
	<path
   id="XMLID_6_"
   class="st0"
   d="m 115.3,257.4 c -13.7,5.4 -24.1,5.8 -25.7,4.5 L 82,243.1 c 7.1,0.5 18,-2.8 25.2,-5.7 7.2,-2.9 17.5,-7.9 22.3,-13.1 l 7.6,18.8 c -0.3,2 -8.1,8.8 -21.8,14.3" />
	<path
   class="st1"
   d="m 120.8,272.2 c -0.8,-0.8 -1.7,-1.4 -2.7,-1.8 -1.7,-0.7 -3.5,-0.6 -5.5,-0.1 -0.9,0.2 -1.9,0.5 -2.8,0.7 -1.3,0.3 -1.9,1 -1.9,1.9 0,0.3 0.1,0.5 0.5,1.4 1,2.3 2,4.6 3.1,6.8 0.4,0.8 0.5,1.1 0.7,1.4 0.4,0.5 0.8,0.8 1.4,0.9 0.5,0.1 1,0.1 2,-0.1 0.6,-0.2 1.2,-0.3 1.8,-0.5 0.9,-0.2 1.7,-0.5 2.1,-0.8 1,-0.5 1.9,-1.4 2.4,-2.5 0.8,-1.6 0.9,-3.7 0.2,-5.4 -0.3,-0.6 -0.8,-1.3 -1.3,-1.9 m -3.2,5.9 c -0.4,0.5 -0.7,0.7 -2.2,1.1 -0.7,-1.6 -1.3,-3.2 -2,-4.8 l 0.4,-0.1 c 0.7,-0.2 1.1,-0.2 1.6,-0.2 h 0.2 c 1,0.1 1.9,0.8 2.3,1.7 0.3,0.8 0.1,1.7 -0.3,2.3 z"
   id="path1384" />
	<path
   class="st2"
   d="m 133,266.1 c -0.7,-0.8 -1.5,-1.3 -2.4,-1.6 -1.6,-0.5 -3.2,-0.2 -5.1,0.8 -0.9,0.5 -1.7,0.8 -2.6,1.2 -1.2,0.5 -1.9,1.4 -1.8,2.4 0,0.3 0.1,0.5 0.5,1.5 0.9,2.3 1.8,4.6 2.7,7 0.3,0.9 0.4,1 0.6,1.4 0.3,0.4 0.8,0.7 1.3,0.8 0.5,0.1 0.9,0 1.9,-0.4 0.6,-0.2 1.1,-0.5 1.7,-0.8 0.8,-0.4 1.5,-0.8 1.9,-1.2 1,-0.8 1.7,-1.9 2.3,-3.1 0.8,-1.9 0.9,-4.1 0.3,-5.9 -0.5,-0.8 -0.9,-1.5 -1.3,-2.1 m -3.1,7 c -0.4,0.6 -0.7,0.8 -2,1.5 -0.6,-1.6 -1.2,-3.3 -1.8,-5 l 0.4,-0.1 c 0.7,-0.3 1.1,-0.4 1.4,-0.5 h 0.2 c 1,0 1.7,0.6 2.1,1.5 0.2,0.8 0.2,1.8 -0.3,2.6 z"
   id="path1386" />
</g>
</svg>
