<svg width="186" height="128" viewBox="0 0 186 128" fill="none" xmlns="http://www.w3.org/2000/svg">
<rect x="1.32294" y="1.32294" width="182.566" height="124.357" rx="14.5524" fill="#1F72CD" stroke="#D9D9D9" stroke-width="2.64589"/>
<path fill-rule="evenodd" clip-rule="evenodd" d="M33.2041 44.98L15.8753 83.3281H36.6203L39.1921 77.2138H45.0706L47.6424 83.3281H70.4768V78.6615L72.5115 83.3281H84.3233L86.358 78.5628V83.3281H133.847L139.622 77.3726L145.029 83.3281L169.42 83.3774L152.037 64.2611L169.42 44.98H145.407L139.786 50.8254L134.549 44.98H82.8871L78.4508 54.878L73.9105 44.98H53.2088V49.4878L50.9058 44.98H33.2041ZM37.2182 50.4256H47.3303L58.8245 76.4296V50.4256H69.9019L78.7798 69.0703L86.9618 50.4256H97.9839V77.9429H91.2772L91.2225 56.3805L81.4448 77.9429H75.4454L65.613 56.3805V77.9429H51.8158L49.2001 71.7738H35.0686L32.4583 77.9374H25.066L37.2182 50.4256ZM131.391 50.4256H104.12V77.9266H130.968L139.622 68.8123L147.963 77.9266H156.682L144.009 64.2558L156.682 50.4256H148.341L139.731 59.4352L131.391 50.4256ZM42.1374 55.0811L37.4817 66.0706H46.7878L42.1374 55.0811ZM110.854 61.1466V56.1233V56.1185H127.87L135.295 64.152L127.541 72.2294H110.854V66.7454H125.732V61.1466H110.854Z" fill="white"/>
</svg>
