<?xml version="1.0" encoding="UTF-8" standalone="no"?>
<svg
   viewBox="0 0 432.87314 438.48068"
   version="1.1"
   id="svg935"
   sodipodi:docname="apply-iso.svg"
   width="432.87314"
   height="438.48068"
   inkscape:version="1.1.1 (c3084ef, 2021-09-22)"
   xmlns:inkscape="http://www.inkscape.org/namespaces/inkscape"
   xmlns:sodipodi="http://sodipodi.sourceforge.net/DTD/sodipodi-0.dtd"
   xmlns="http://www.w3.org/2000/svg"
   xmlns:svg="http://www.w3.org/2000/svg">
  <defs
     id="defs939">
    <clipPath
       id="freepik--clip-path--inject-15">
      <path
         d="M 175.37,119.69 H 300.6 a 4.36,4.36 0 0 1 4.36,4.36 v 152.76 a 4.36,4.36 0 0 1 -4.36,4.36 H 175.37 A 4.37,4.37 0 0 1 171,276.8 V 124.06 a 4.36,4.36 0 0 1 4.36,-4.36 z"
         style="fill:none"
         id="path2644" />
    </clipPath>
  </defs>
  <sodipodi:namedview
     id="namedview937"
     pagecolor="#ffffff"
     bordercolor="#666666"
     borderopacity="1.0"
     inkscape:pageshadow="2"
     inkscape:pageopacity="0.0"
     inkscape:pagecheckerboard="0"
     showgrid="false"
     fit-margin-top="0"
     fit-margin-left="0"
     fit-margin-right="0"
     fit-margin-bottom="0"
     inkscape:zoom="0.745"
     inkscape:cx="228.85906"
     inkscape:cy="208.72483"
     inkscape:window-width="1920"
     inkscape:window-height="1027"
     inkscape:window-x="1965"
     inkscape:window-y="55"
     inkscape:window-maximized="0"
     inkscape:current-layer="freepik--Device--inject-8" />
  <path
     d="m 399.7783,58.040672 -2.21,-3.64 c -18.62,-30.69 -52.28,-49.1799997 -87.78,-46.9399997 a 93,93 0 0 0 -13.58,1.87 c -32.27,6.9099997 -60.35,31.3099997 -72,62.5599997 -6.85,18.38 -8.76,39.549998 -21.75,54.139998 -16.91,19 -45.61,19.58 -70.84,18.8 -25.23,-0.78 -54.000004,-0.12 -70.780004,18.94 -10.54,11.94 -13.89,28.92 -13,44.91 2.25,42.33 31.75,80.18 69.260004,99 37.51,18.82 81.68,20.5 122.74,12.23 57.51,-11.6 112.2,-43.44 145.08,-92.61 32.88,-49.17 41.17,-116.19 14.86,-169.259998 z"
     style="fill:#6b68f8;fill-opacity:1;opacity:0.10291262"
     id="path824" />
  <circle
     cx="-109.51784"
     cy="133.05035"
     r="16.639999"
     transform="rotate(-45)"
     style="fill:#6b68f8;fill-opacity:1;opacity:0.103"
     id="circle826" />
  <circle
     cx="78.775452"
     cy="409.04932"
     r="16.639999"
     transform="rotate(-76.81)"
     style="fill:#6b68f8;fill-opacity:1;opacity:0.103"
     id="circle828" />
  <g
     id="freepik--Padlock--inject-8"
     transform="translate(-22.111704,-41.419328)">
    <path
       d="m 75.85,74.66 a 36.14,36.14 0 0 0 -19.73,47.08 l 22.41,54.7 10,-4.11 -22.4,-54.71 a 25.231252,25.231252 0 0 1 46.7,-19.12 l 10.05,-4.12 A 36.12,36.12 0 0 0 75.85,74.66 Z"
       style="fill:#6b68f8"
       id="path831" />
    <g
       style="opacity:0.3"
       id="g835">
      <path
         d="m 75.85,74.66 a 36.14,36.14 0 0 0 -19.73,47.08 l 22.41,54.7 10,-4.11 -22.4,-54.71 a 25.231252,25.231252 0 0 1 46.7,-19.12 l 10.05,-4.12 A 36.12,36.12 0 0 0 75.85,74.66 Z"
         id="path833" />
    </g>
    <rect
       x="65.150002"
       y="136.10001"
       width="97.290001"
       height="62.419998"
       rx="5.8099999"
       transform="rotate(-22.27,113.78603,167.28822)"
       style="fill:#6b68f8"
       id="rect837" />
    <g
       style="opacity:0.5"
       id="g841">
      <path
         d="m 118.23,156.7 a 8.13,8.13 0 1 0 -6.62,11.13 l 4.6,11.25 4.11,-1.68 -4.61,-11.25 a 8.1,8.1 0 0 0 2.52,-9.45 z"
         id="path839" />
    </g>
    <path
       d="m 83.16,207.18 c -0.21,0.09 -4.32,-9.48 -9.18,-21.36 -4.86,-11.88 -8.65,-21.58 -8.44,-21.67 0.21,-0.09 4.32,9.48 9.18,21.37 4.86,11.89 8.64,21.58 8.44,21.66 z"
       style="fill:#fafafa"
       id="path843" />
    <path
       d="m 108.76,171.85 a 2.77,2.77 0 0 1 -1.08,-0.14 10.14,10.14 0 0 1 -2.75,-1.19 11.38,11.38 0 0 1 -2.73,-17.36 9.51,9.51 0 0 1 2.25,-2 c 0.6,-0.37 1,-0.51 1,-0.47 a 25.93,25.93 0 0 0 -2.8,2.79 11.28,11.28 0 0 0 2.6,16.53 26.35,26.35 0 0 0 3.51,1.84 z"
       style="fill:#fafafa"
       id="path845" />
    <path
       d="m 44.94,181.71 0.49,-1.42 0.93,1.18 a 6.21,6.21 0 0 0 2.88,2 l 1.42,0.49 -1.18,0.93 a 6.34,6.34 0 0 0 -2,2.88 l -0.48,1.45 -1,-1.17 a 6.31,6.31 0 0 0 -2.89,-2 l -1.41,-0.49 1.17,-0.93 a 6.34,6.34 0 0 0 2.07,-2.92 z"
       style="fill:#6b68f8"
       id="path847" />
    <path
       d="m 92.4,125.92 0.28,-0.82 0.54,0.68 A 3.69,3.69 0 0 0 94.9,127 l 0.82,0.28 -0.68,0.55 a 3.63,3.63 0 0 0 -1.19,1.67 L 93.57,130.32 93,129.6 a 3.54,3.54 0 0 0 -1.67,-1.18 l -0.83,-0.29 0.69,-0.54 a 3.68,3.68 0 0 0 1.21,-1.67 z"
       style="fill:#6b68f8"
       id="path849" />
    <path
       d="m 35.33,132.87 0.82,-2.39 1.57,2 a 10.48,10.48 0 0 0 4.84,3.42 l 2.38,0.82 -2,1.57 a 10.57,10.57 0 0 0 -3.43,4.84 l -0.82,2.38 -1.56,-2 a 10.5,10.5 0 0 0 -4.84,-3.43 l -2.38,-0.82 2,-1.56 a 10.58,10.58 0 0 0 3.42,-4.83 z"
       style="fill:#6b68f8"
       id="path851" />
  </g>
  <g
     id="freepik--Device--inject-8"
     transform="translate(-22.111704,-41.419328)">
    <path
       d="m 311.06,479.9 -147.61,-0.09 a 32.16,32.16 0 0 1 -32.14,-32.16 l 0.07,-370.07 a 32.16,32.16 0 0 1 32.18,-32.15 l 147.61,0.08 a 32.16,32.16 0 0 1 32.14,32.16 l -0.07,370.08 a 32.16,32.16 0 0 1 -32.18,32.15 z"
       style="fill:#6b68f8;fill-opacity:1"
       id="path854" />
    <path
       d="m 311,58.6 h -28.6 a 7.1,7.1 0 0 0 -6.95,7.26 V 71 a 7.11,7.11 0 0 1 -6.95,7.26 h -55.78 a 7.12,7.12 0 0 1 -7,-7.27 v -5.18 a 7.11,7.11 0 0 0 -6.95,-7.27 H 163.7 A 22.53,22.53 0 0 0 141.16,81 l -0.07,361.22 a 22.52,22.52 0 0 0 22.51,22.52 l 147.32,0.09 a 22.51,22.51 0 0 0 22.53,-22.52 L 333.52,81.1 A 22.52,22.52 0 0 0 311,58.6 Z"
       style="fill:#ffffff"
       id="path856" />
    <path
       d="m 223.63,437.25 a 2.83,2.83 0 1 1 -2.86,-2.8 2.84,2.84 0 0 1 2.86,2.8 z"
       style="fill:#6b68f8;fill-opacity:1"
       id="path858" />
    <path
       d="m 239.47,437.12 a 2.83,2.83 0 1 1 -2.85,-2.8 2.83,2.83 0 0 1 2.85,2.8 z"
       style="fill:#6b68f8;fill-opacity:1"
       id="path860" />
    <path
       d="m 255.32,437 a 2.83,2.83 0 1 1 -2.85,-2.8 2.83,2.83 0 0 1 2.85,2.8 z"
       style="fill:#6b68f8;fill-opacity:1"
       id="path862" />
    <path
       d="m 321,217 c 0,0.14 -37,0.26 -82.69,0.26 -45.69,0 -82.71,-0.12 -82.71,-0.26 0,-0.14 37,-0.26 82.71,-0.26 45.71,0 82.69,0.09 82.69,0.26 z"
       style="fill:#e0e0e0"
       id="path888" />
    <path
       d="m 317.15,369.23 c 0,0.15 -37,0.26 -82.7,0.26 -45.7,0 -82.7,-0.11 -82.7,-0.26 0,-0.15 37,-0.26 82.7,-0.26 45.7,0 82.7,0.12 82.7,0.26 z"
       style="fill:#e0e0e0"
       id="path890" />
    <path
       d="m 170.5,261.3 3.13,1.69 -1.41,2.36 -3.16,-1.87 0.06,3.48 h -2.7 v -3.51 l -3.17,1.9 -1.35,-2.35 3.1,-1.7 -3.14,-1.73 1.38,-2.35 3.17,1.89 v -3.5 h 2.7 l -0.06,3.5 3.16,-1.89 1.41,2.35 z"
       style="fill:#6b68f8"
       id="path894" />
    <path
       d="m 206.42,261.3 3.13,1.69 -1.41,2.36 -3.14,-1.87 V 267 h -2.71 v -3.51 l -3.16,1.9 -1.31,-2.39 3.18,-1.7 -3.13,-1.73 1.38,-2.35 3.16,1.89 v -3.5 H 205 l -0.06,3.5 3.16,-1.89 1.41,2.35 z"
       style="fill:#6b68f8"
       id="path896" />
    <path
       d="m 241.38,261.3 3.13,1.69 -1.41,2.36 -3.16,-1.87 0.06,3.52 h -2.7 v -3.51 l -3.17,1.9 -1.35,-2.39 3.14,-1.69 -3.14,-1.73 1.38,-2.35 3.17,1.89 v -3.5 H 240 l -0.06,3.5 3.16,-1.89 1.41,2.35 z"
       style="fill:#6b68f8"
       id="path898" />
    <path
       d="m 275.25,261.3 3.13,1.69 -1.38,2.36 -3.16,-1.87 0.06,3.48 h -2.7 v -3.51 l -3.16,1.9 -1.39,-2.35 3.14,-1.69 -3.14,-1.73 1.38,-2.35 3.16,1.89 v -3.5 h 2.7 l -0.06,3.5 3.16,-1.89 1.41,2.35 z"
       style="fill:#6b68f8"
       id="path900" />
    <path
       d="m 308.85,261.3 3.15,1.7 -1.41,2.36 -3.16,-1.87 0.05,3.48 h -2.7 v -3.51 l -3.16,1.9 -1.36,-2.36 3.13,-1.69 -3.13,-1.73 1.38,-2.35 3.16,1.89 v -3.5 h 2.7 l -0.05,3.5 3.16,-1.89 1.41,2.35 z"
       style="fill:#6b68f8"
       id="path902" />
    <path
       d="m 176.07,283.08 h -15.15 a 7.08,7.08 0 0 1 -7.07,-7.07 v -26.9 a 7.07,7.07 0 0 1 7.07,-7.06 h 15.15 a 7.07,7.07 0 0 1 7.07,7.06 V 276 a 7.08,7.08 0 0 1 -7.07,7.08 z m -15.15,-40.53 a 6.57,6.57 0 0 0 -6.57,6.56 V 276 a 6.58,6.58 0 0 0 6.57,6.57 h 15.15 a 6.57,6.57 0 0 0 6.57,-6.57 v -26.9 a 6.57,6.57 0 0 0 -6.57,-6.56 z"
       style="fill:#263238"
       id="path904" />
    <path
       d="M 211.26,283.08 H 196.11 A 7.08,7.08 0 0 1 189,276 v -26.9 a 7.07,7.07 0 0 1 7.07,-7.06 h 15.15 a 7.07,7.07 0 0 1 7.07,7.06 V 276 a 7.08,7.08 0 0 1 -7.03,7.08 z m -15.15,-40.53 a 6.57,6.57 0 0 0 -6.57,6.56 V 276 a 6.58,6.58 0 0 0 6.57,6.57 h 15.15 a 6.57,6.57 0 0 0 6.57,-6.57 v -26.9 a 6.57,6.57 0 0 0 -6.57,-6.56 z"
       style="fill:#263238"
       id="path906" />
    <path
       d="m 245.49,283.08 h -15.16 a 7.08,7.08 0 0 1 -7.07,-7.07 v -26.9 a 7.07,7.07 0 0 1 7.07,-7.06 h 15.16 a 7.07,7.07 0 0 1 7.06,7.06 V 276 a 7.07,7.07 0 0 1 -7.06,7.08 z m -15.16,-40.53 a 6.57,6.57 0 0 0 -6.57,6.56 V 276 a 6.58,6.58 0 0 0 6.57,6.57 h 15.16 a 6.57,6.57 0 0 0 6.56,-6.57 v -26.9 a 6.56,6.56 0 0 0 -6.56,-6.56 z"
       style="fill:#263238"
       id="path908" />
    <path
       d="m 280.1,283.08 h -15.16 a 7.08,7.08 0 0 1 -7.07,-7.07 v -26.9 a 7.07,7.07 0 0 1 7.07,-7.06 h 15.16 a 7.07,7.07 0 0 1 7.06,7.06 V 276 a 7.07,7.07 0 0 1 -7.06,7.08 z m -15.16,-40.53 a 6.57,6.57 0 0 0 -6.57,6.56 V 276 a 6.58,6.58 0 0 0 6.57,6.57 h 15.16 a 6.57,6.57 0 0 0 6.56,-6.57 v -26.9 a 6.56,6.56 0 0 0 -6.56,-6.56 z"
       style="fill:#263238"
       id="path910" />
    <path
       d="m 313.7,283.08 h -15.15 a 7.08,7.08 0 0 1 -7.07,-7.07 v -26.9 a 7.07,7.07 0 0 1 7.07,-7.06 h 15.15 a 7.07,7.07 0 0 1 7.07,7.06 V 276 a 7.08,7.08 0 0 1 -7.07,7.08 z m -15.15,-40.53 a 6.57,6.57 0 0 0 -6.57,6.56 V 276 a 6.57,6.57 0 0 0 6.57,6.57 h 15.15 a 6.58,6.58 0 0 0 6.57,-6.57 v -26.9 a 6.57,6.57 0 0 0 -6.57,-6.56 z"
       style="fill:#263238"
       id="path912" />
    <rect
       x="154.09"
       y="315.56"
       width="169.78999"
       height="29.74"
       rx="11.29"
       style="fill:#6b68f8"
       id="rect914" />
    <circle
       cx="237.31"
       cy="156.94283"
       r="30.049999"
       style="fill:#6b68f8;fill-opacity:1"
       id="circle924" />
    <path
       d="m 232,151.47282 h -0.5 v -2.8 a 5.86,5.86 0 0 1 11.72,0 v 2.28 h -0.5 v -2.28 a 5.36,5.36 0 0 0 -10.72,0 z"
       style="fill:#ffffff"
       id="path926" />
    <path
       d="m 244.76,171.07282 h -14.9 a 2.48,2.48 0 0 1 -2.47,-2.47 v -14.91 a 2.48,2.48 0 0 1 2.47,-2.47 h 14.9 a 2.48,2.48 0 0 1 2.47,2.47 v 14.91 a 2.48,2.48 0 0 1 -2.47,2.47 z m -14.9,-19.35 a 2,2 0 0 0 -2,2 v 14.91 a 2,2 0 0 0 2,2 h 14.9 a 2,2 0 0 0 2,-2 v -14.94 a 2,2 0 0 0 -2,-2 z"
       style="fill:#ffffff"
       id="path928" />
    <path
       d="m 237.38,161.63282 a 2.34,2.34 0 1 1 2.34,-2.34 2.34,2.34 0 0 1 -2.34,2.34 z m 0,-4.17 a 1.84,1.84 0 1 0 1.84,1.83 1.84,1.84 0 0 0 -1.84,-1.87 z"
       style="fill:#ffffff"
       id="path930" />
    <rect
       x="237.06"
       y="161.28282"
       width="0.5"
       height="4.2199998"
       style="fill:#ffffff"
       id="rect932" />
  </g>
</svg>
