<svg xmlns="http://www.w3.org/2000/svg" version="1.1" xmlns:xlink="http://www.w3.org/1999/xlink" xmlns:svgjs="http://svgjs.dev/svgjs" width="1440" height="560" preserveAspectRatio="none" viewBox="0 0 1440 560"><g mask="url(&quot;#SvgjsMask1073&quot;)" fill="none"><rect width="1440" height="560" x="0" y="0" fill="rgba(233, 237, 252, 1)"></rect><path d="M0,437.706C79.858,449.541,144.155,373.194,208.525,324.472C268.374,279.173,324.173,230.301,360.673,164.714C399.38,95.16,430.613,18.419,422.938,-60.809C415.097,-141.749,384.271,-228.41,318.023,-275.569C253.897,-321.217,166.216,-291.54,87.887,-299.317C26.41,-305.421,-31.265,-320.675,-92.894,-316.368C-169.177,-311.037,-251.095,-316.063,-313.088,-271.292C-380.613,-222.526,-434.969,-146.59,-442.805,-63.666C-450.557,18.371,-406.084,97.811,-354.002,161.667C-308.718,217.188,-228.758,223.985,-172.259,268.041C-107.389,318.625,-81.372,425.647,0,437.706" fill="#d4dcf9"></path><path d="M1440 1269.673C1569.017 1289.5700000000002 1660.975 1143.2939999999999 1760.797 1059.17 1848.312 985.418 1936.945 912.749 1986.146 809.4159999999999 2035.85 705.0260000000001 2072.68 584.563 2039.5149999999999 473.803 2007.528 366.976 1883.652 322.988 1814.337 235.635 1740.555 142.652 1721.106 8.447999999999979 1620.399-54.38300000000004 1508.663-124.096 1363.068-168.442 1239.44-123.04499999999996 1116.473-77.88999999999999 1053.836 57.62299999999999 995.7 175.012 947.665 272.005 956.994 381.307 936.9839999999999 487.677 915.831 600.121 823.655 715.766 874.711 818.159 926.018 921.056 1087.218 897.3910000000001 1177.057 969.148 1283.209 1053.935 1305.73 1248.966 1440 1269.673" fill="#feffff"></path></g><defs><mask id="SvgjsMask1073"><rect width="1440" height="560" fill="#ffffff"></rect></mask></defs></svg>