<svg width="186" height="128" viewBox="0 0 186 128" fill="none" xmlns="http://www.w3.org/2000/svg">
<rect x="1.32294" y="1.32294" width="182.566" height="124.357" rx="14.5524" fill="white" stroke="#D9D9D9" stroke-width="2.64589"/>
<path d="M78.0536 124.357L182.566 93.929V111.127C182.566 118.434 176.643 124.357 169.337 124.357H78.0536Z" fill="#FD6020"/>
<path fill-rule="evenodd" clip-rule="evenodd" d="M162.729 50.8583C168.479 50.8583 171.641 53.4171 171.641 58.2503C171.929 61.9464 169.341 65.0738 165.891 65.6424L173.654 76.1619H167.616L161.004 65.9267H160.429V76.1619H155.542V50.8583H162.729ZM160.429 62.5151H161.866C165.029 62.5151 166.466 61.0935 166.466 58.5347C166.466 56.2602 165.029 54.8387 161.866 54.8387H160.429V62.5151ZM138.58 76.1619H152.379V71.8973H143.467V65.0738H152.092V60.8091H143.467V55.1229H152.379V50.8583H138.58V76.1619ZM124.205 67.9169L117.593 50.8583H112.418L123.055 76.7305H125.643L136.28 50.8583H131.105L124.205 67.9169ZM65.8448 63.6523C65.8448 70.7601 71.5946 76.7306 78.7818 76.7306C81.0818 76.7306 83.0942 76.162 85.1066 75.309V69.6228C83.6692 71.3287 81.6567 72.4659 79.3568 72.4659C74.757 72.4659 71.0196 69.0542 71.0196 64.5052V63.9366C70.7321 59.3876 74.4695 55.4073 79.0693 55.123C81.3693 55.123 83.6692 56.2602 85.1066 57.9661V52.2799C83.3817 51.1426 81.0818 50.8583 79.0693 50.8583C71.5946 50.2897 65.8448 56.2602 65.8448 63.6523ZM56.9326 60.5249C54.0577 59.3876 53.1952 58.819 53.1952 57.3975C53.4827 55.6916 54.9201 54.27 56.6451 54.5543C58.0825 54.5543 59.52 55.4073 60.6699 56.5445L63.2573 53.1328C61.2449 51.4269 58.6575 50.2897 56.0701 50.2897C52.0452 50.0054 48.5953 53.1328 48.3078 57.1131V57.3975C48.3078 60.8092 49.7453 62.7994 54.3451 64.2209C55.4951 64.5052 56.6451 65.0738 57.795 65.6425C58.6575 66.2111 59.2325 67.064 59.2325 68.2013C59.2325 70.1914 57.5075 71.8973 55.7826 71.8973H55.4951C53.1952 71.8973 51.1828 70.4757 50.3203 68.4856L47.1579 71.613C48.8828 74.7404 52.3327 76.4463 55.7826 76.4463C60.3824 76.7306 64.1198 73.3189 64.4073 68.7699V67.917C64.1198 64.5052 62.6824 62.7994 56.9326 60.5249ZM40.2581 76.1619H45.1455V50.8583H40.2581V76.1619ZM17.5464 50.8583H24.7336H26.1711C33.0709 51.1426 38.5332 56.8288 38.2457 63.6522C38.2457 67.3483 36.5207 70.76 33.6458 73.3188C31.0584 75.309 27.896 76.4462 24.7336 76.1619H17.5464V50.8583ZM23.8712 71.8975C26.1711 72.1818 28.7585 71.3288 30.4835 69.9073C32.2084 68.2014 33.0709 65.9269 33.0709 63.3681C33.0709 61.0936 32.2084 58.8192 30.4835 57.1133C28.7585 55.6917 26.1711 54.8388 23.8712 55.1231H22.4338V71.8975H23.8712Z" fill="black"/>
<path fill-rule="evenodd" clip-rule="evenodd" d="M99.7687 50.2717C92.5815 50.2717 86.5442 55.9579 86.5442 63.35C86.5442 70.4578 92.294 76.4283 99.7687 76.7126C107.243 76.9969 112.993 71.0264 113.281 63.6343C112.993 56.2423 107.243 50.2717 99.7687 50.2717V50.2717Z" fill="#FD6020"/>
</svg>
