<?xml version="1.0" encoding="UTF-8" standalone="no"?>
<!-- Created with Inkscape (http://www.inkscape.org/) -->

<svg
   width="883.23529"
   height="141.3367"
   viewBox="0 0 233.68933 37.395335"
   version="1.1"
   id="svg5"
   inkscape:version="1.1.1 (c3084ef, 2021-09-22)"
   sodipodi:docname="full-logo-noborder.svg"
   inkscape:export-filename="/Users/kyleunderhill/Desktop/Desktop/Donorport/2022 Logo/meta2.png"
   inkscape:export-xdpi="300"
   inkscape:export-ydpi="300"
   xmlns:inkscape="http://www.inkscape.org/namespaces/inkscape"
   xmlns:sodipodi="http://sodipodi.sourceforge.net/DTD/sodipodi-0.dtd"
   xmlns="http://www.w3.org/2000/svg"
   xmlns:svg="http://www.w3.org/2000/svg">
  <sodipodi:namedview
     id="namedview7"
     pagecolor="#ffffff"
     bordercolor="#666666"
     borderopacity="1.0"
     inkscape:pageshadow="2"
     inkscape:pageopacity="0.0"
     inkscape:pagecheckerboard="0"
     inkscape:document-units="mm"
     showgrid="false"
     inkscape:zoom="0.38339927"
     inkscape:cx="653.36588"
     inkscape:cy="-61.293805"
     inkscape:window-width="1920"
     inkscape:window-height="1027"
     inkscape:window-x="0"
     inkscape:window-y="25"
     inkscape:window-maximized="1"
     inkscape:current-layer="layer1"
     units="px"
     inkscape:snap-global="false"
     inkscape:snap-bbox="true"
     inkscape:bbox-paths="true"
     fit-margin-top="0"
     fit-margin-left="0"
     fit-margin-right="0"
     fit-margin-bottom="0" />
  <defs
     id="defs2">
    <rect
       x="1024.8414"
       y="242.20238"
       width="56.031895"
       height="41.572048"
       id="rect2823" />
  </defs>
  <g
     inkscape:label="Layer 1"
     inkscape:groupmode="layer"
     id="layer1"
     transform="translate(-41.905334,140.11797)">
    <g
       id="g3506"
       transform="translate(0,48.202741)">
      <g
         id="g3390"
         transform="translate(-107.41217,4.9764657)">
        <circle
           style="fill:#5f5df8;fill-opacity:1;stroke:none;stroke-width:3.44196;stroke-linecap:round;stroke-linejoin:round;stroke-miterlimit:4;stroke-dasharray:none;stroke-opacity:1;paint-order:fill markers stroke"
           id="circle156"
           cx="164.84641"
           cy="-177.76828"
           r="15.528901" />
        <g
           id="g6831"
           transform="translate(106.99397,-54.195811)"
           style="fill:#ffffff">
          <rect
             style="fill:#ffffff;fill-opacity:1;stroke-width:3.6081;stroke-linecap:round;stroke-linejoin:round;paint-order:fill markers stroke"
             id="rect743"
             width="2.6185026"
             height="16.804039"
             x="52.834274"
             y="-131.97449"
             rx="1.2052821"
             ry="1.2472566" />
          <g
             id="g6311"
             transform="matrix(0.86231347,0,0,0.85329596,9.8287899,-18.029547)"
             style="fill:#ffffff">
            <path
               id="path4490"
               style="fill:#ffffff;stroke-width:3.30991;stroke-linecap:round;stroke-linejoin:round;paint-order:fill markers stroke"
               d="m 64.296043,-122.19249 -3.05316,-3.44404 h -9.682982 v 2.83191 0.61213 1.03811 h 11.751476 c 0.545505,0 0.984666,-0.463 0.984666,-1.03811 z m 0,-6.88807 -3.05316,3.44403 h -9.682982 v -2.8319 -0.61213 -1.03811 h 11.751476 c 0.545505,0 0.984666,0.46299 0.984666,1.03811 z" />
          </g>
        </g>
      </g>
      <path
         d="m 119.2952,-178.14096 c -6.52082,0.15588 -10.30837,3.98277 -10.30837,9.80074 0,5.27131 4.29514,8.86364 9.41031,8.86364 5.70084,0 9.8007,-3.94371 9.8007,-9.41032 0,-4.13894 -2.3037,-8.23885 -7.41888,-9.09786 -0.50758,-0.11713 -1.01521,-0.15588 -1.48376,-0.15588 z m 2.57711,9.09786 c 0,2.49902 -1.5619,4.17804 -3.55325,4.17804 -1.56193,0 -3.00661,-1.52282 -3.00661,-3.55329 0,-2.69418 1.28853,-4.21701 3.43612,-4.25605 1.83516,-0.0371 3.12374,1.95235 3.12374,3.6313 z"
         style="font-weight:900;font-size:18px;line-height:1.25;font-family:Linotte;-inkscape-font-specification:'Linotte Heavy';white-space:pre;fill:#333333;fill-opacity:1;stroke-width:0.390822"
         id="path2795" />
      <path
         d="m 131.66084,-172.47916 c 0.0779,3.51419 -0.11708,6.9503 -0.11708,10.34735 0,2.18668 1.44476,2.65523 3.31896,2.65523 1.40573,0 3.08469,-0.58571 3.08469,-2.53806 l -0.0371,-5.34942 c 0,-3.47514 0.46853,-5.23227 3.12372,-5.19324 1.99141,0.0371 2.26471,1.9914 2.26471,4.21708 0,1.99138 -0.0779,4.45133 -0.0779,6.16938 0,1.87427 1.40569,2.65522 3.04563,2.65522 1.79616,0 3.43613,-0.54667 3.43613,-2.69426 v -3.08469 c 0,-1.99135 0.0371,-2.92851 0.0371,-4.76371 0,-5.11516 -2.57709,-7.88745 -7.02841,-7.88745 -1.95233,0 -4.21704,1.09329 -4.91985,2.77229 l -0.11712,-0.70281 c -0.23457,-1.28853 -1.13235,-1.99137 -2.85043,-1.99137 -2.34279,0 -3.24089,1.13235 -3.20185,3.27993 z"
         style="font-weight:900;font-size:18px;line-height:1.25;font-family:Linotte;-inkscape-font-specification:'Linotte Heavy';white-space:pre;fill:#333333;fill-opacity:1;stroke-width:0.390822"
         id="path2797" />
      <path
         d="m 163.22284,-178.14096 c -6.52082,0.15588 -10.30836,3.98277 -10.30836,9.80074 0,5.27131 4.29519,8.86364 9.41027,8.86364 5.70086,0 9.80076,-3.94371 9.80076,-9.41032 0,-4.13894 -2.30379,-8.23885 -7.41887,-9.09786 -0.50762,-0.11713 -1.01522,-0.15588 -1.4838,-0.15588 z m 2.57711,9.09786 c 0,2.49902 -1.56189,4.17804 -3.55329,4.17804 -1.56183,0 -3.00656,-1.52282 -3.00656,-3.55329 0,-2.69418 1.28852,-4.21701 3.43607,-4.25605 1.83524,-0.0371 3.12378,1.95235 3.12378,3.6313 z"
         style="font-weight:900;font-size:18px;line-height:1.25;font-family:Linotte;-inkscape-font-specification:'Linotte Heavy';white-space:pre;fill:#333333;fill-opacity:1;stroke-width:0.390822"
         id="path2799" />
      <path
         d="m 175.51036,-175.01724 c 0,1.17142 0.0371,2.34279 0.0371,3.51424 0,2.65514 -0.0779,6.09127 -0.0779,9.09789 0,2.30378 1.36664,2.92853 3.12376,2.92853 1.75712,0 3.20184,-0.70286 3.24088,-2.53806 0.0779,-1.48378 -0.0779,-3.59233 -0.0779,-5.03702 0,-3.78754 1.5228,-4.95896 3.59228,-4.95896 0.11712,0 0.15588,0 0.50763,0 1.679,0 2.45995,-1.60093 2.45995,-3.08469 0,-2.03044 -0.93716,-2.92849 -2.69422,-2.92849 -1.71809,0 -3.63137,1.17136 -4.33422,2.77229 l -0.27333,-0.97619 c -0.31247,-1.09328 -1.13236,-1.63992 -2.34282,-1.63992 -1.95236,0 -3.16282,0.97615 -3.16282,2.85038 z"
         style="font-weight:900;font-size:18px;line-height:1.25;font-family:Linotte;-inkscape-font-specification:'Linotte Heavy';white-space:pre;fill:#333333;fill-opacity:1;stroke-width:0.390822"
         id="path2801" />
      <path
         d="m 190.68676,-175.29059 0.0371,6.40369 -0.0779,15.07209 c 0,1.91329 1.01522,2.88943 2.81139,2.88943 2.49898,0 3.63136,-0.93711 3.63136,-3.04561 0,-1.91333 -0.0779,-3.74853 -0.0779,-4.68561 0,-0.66382 -0.0371,-1.79617 -0.0371,-2.26471 0.89805,1.09328 2.22568,1.60089 3.98274,1.60089 5.62281,0 9.37128,-4.09991 9.37128,-9.48837 0,-5.3494 -3.12377,-9.21501 -8.51224,-9.21501 -2.14757,0 -4.09991,0.97612 -5.11509,2.57705 l -0.19549,-0.78095 c -0.31246,-1.09328 -1.09328,-1.75706 -2.6161,-1.75706 -1.91331,0 -3.1628,0.81998 -3.20185,2.69417 z m 13.23689,6.36466 c 0,2.49902 -1.44477,4.17797 -3.43611,4.17797 -2.38187,0 -3.51421,-1.36659 -3.51421,-4.02177 0,-2.3428 1.75708,-3.78757 3.59228,-3.78757 1.679,0 3.35804,1.3667 3.35804,3.63137 z"
         style="font-weight:900;font-size:18px;line-height:1.25;font-family:Linotte;-inkscape-font-specification:'Linotte Heavy';white-space:pre;fill:#333333;fill-opacity:1;stroke-width:0.390822"
         id="path2803" />
      <path
         d="m 223.01325,-178.14096 c -6.52081,0.15588 -10.30836,3.98277 -10.30836,9.80074 0,5.27131 4.29515,8.86364 9.41032,8.86364 5.70076,0 9.80072,-3.94371 9.80072,-9.41032 0,-4.13894 -2.30378,-8.23885 -7.41891,-9.09786 -0.50762,-0.11713 -1.01522,-0.15588 -1.48377,-0.15588 z m 2.5771,9.09786 c 0,2.49902 -1.56192,4.17804 -3.55323,4.17804 -1.56192,0 -3.0066,-1.52282 -3.0066,-3.55329 0,-2.69418 1.28852,-4.21701 3.43606,-4.25605 1.8352,-0.0371 3.12377,1.95235 3.12377,3.6313 z"
         style="font-weight:900;font-size:18px;line-height:1.25;font-family:Linotte;-inkscape-font-specification:'Linotte Heavy';white-space:pre;fill:#333333;fill-opacity:1;stroke-width:0.390822"
         id="path2805" />
      <path
         d="m 235.30077,-175.01724 c 0,1.17142 0.0371,2.34279 0.0371,3.51424 0,2.65514 -0.0779,6.09127 -0.0779,9.09789 0,2.30378 1.36661,2.92853 3.12378,2.92853 1.75707,0 3.20184,-0.70286 3.24088,-2.53806 0.0779,-1.48378 -0.078,-3.59233 -0.078,-5.03702 0,-3.78754 1.52284,-4.95896 3.59226,-4.95896 0.11714,0 0.15589,0 0.50765,0 1.67904,0 2.45994,-1.60093 2.45994,-3.08469 0,-2.03044 -0.9371,-2.92849 -2.69421,-2.92849 -1.71806,0 -3.63137,1.17136 -4.3342,2.77229 l -0.27331,-0.97619 c -0.31246,-1.09328 -1.13232,-1.63992 -2.34278,-1.63992 -1.95232,0 -3.16278,0.97615 -3.16278,2.85038 z"
         style="font-weight:900;font-size:18px;line-height:1.25;font-family:Linotte;-inkscape-font-specification:'Linotte Heavy';white-space:pre;fill:#333333;fill-opacity:1;stroke-width:0.390822"
         id="path2807" />
      <path
         d="m 250.71144,-172.24494 h 1.32761 c 0.0371,1.83525 -0.0371,3.67044 -0.0371,5.50564 0,5.15417 2.61611,7.26272 6.32558,7.26272 2.03044,0 2.85038,-0.15631 3.74847,-0.78095 0.70288,-0.46854 1.05425,-1.13237 1.05425,-2.61615 0,-1.24949 -0.81993,-2.49898 -2.22565,-2.49898 -0.58571,0 -0.74187,0.1955 -1.52281,0.1955 -1.01522,0 -1.28857,-1.17147 -1.28857,-2.10855 v -4.95897 h 2.61615 c 1.60095,0 2.30378,-1.28854 2.30378,-2.81134 0,-1.71809 -0.93715,-2.61619 -2.53806,-2.61619 h -2.34283 c 0.0371,-1.32751 0.0779,-2.26471 0.0779,-3.00662 0,-1.48371 -0.97619,-2.42084 -2.57712,-2.42084 -2.22567,0 -3.39707,1.17139 -3.4752,3.35799 l -0.0779,2.06947 h -1.17142 c -1.44478,0 -2.45995,1.0543 -2.45995,2.61619 0,1.63992 0.62475,2.81134 2.26471,2.81134 z"
         style="font-weight:900;font-size:18px;line-height:1.25;font-family:Linotte;-inkscape-font-specification:'Linotte Heavy';white-space:pre;fill:#333333;fill-opacity:1;stroke-width:0.390822"
         id="path2809" />
      <path
         d="m 83.506983,-182.63138 0.03707,13.23686 v 6.98936 c 0,1.44477 1.288528,2.85042 2.92853,2.85042 1.132336,0 3.748482,0.0779 5.388438,0.0779 8.668399,-0.0779 14.954929,-3.63134 14.954929,-14.174 0,-8.23889 -6.79415,-12.45594 -14.447301,-12.45594 -0.546665,0 -2.577101,0.0371 -3.358039,0.0371 -2.538027,0 -5.505601,0.31246 -5.505601,3.43612 z m 8.941674,2.30373 c 4.060911,0 7.848453,2.10857 7.848453,7.14557 0,5.97418 -3.826582,7.88747 -8.746469,7.88747 -0.937137,0 -1.405691,0.11713 -1.405691,-0.97618 v -14.0178 c 0.898063,-0.0371 1.874237,-0.0371 2.303707,-0.0371 z"
         style="font-weight:900;font-size:18px;line-height:1.25;font-family:Linotte;-inkscape-font-specification:'Linotte Heavy';white-space:pre;fill:#333333;fill-opacity:1;stroke-width:0.390822"
         id="path2811" />
      <text
         xml:space="preserve"
         transform="matrix(0.51208471,0,0,0.51208471,-259.55321,-314.16574)"
         id="text2817"
         style="font-size:18px;line-height:1.25;font-family:'Plus Jakarta Display';-inkscape-font-specification:'Plus Jakarta Display, Normal';white-space:pre;shape-inside:url(#rect2823);fill:#333333;fill-opacity:1"><tspan
           x="1024.8418"
           y="259.35112"
           id="tspan960"><tspan
             style="font-weight:bold;-inkscape-font-specification:'Plus Jakarta Display Bold'"
             id="tspan958">™</tspan></tspan></text>
    </g>
  </g>
</svg>
