<?xml version="1.0" encoding="UTF-8" standalone="no"?>
<!-- Created with Inkscape (http://www.inkscape.org/) -->

<svg
   width="78.510704mm"
   height="28.845423mm"
   viewBox="0 0 78.510708 28.845424"
   version="1.1"
   id="svg5"
   sodipodi:docname="grid.svg"
   inkscape:export-filename="/Users/kyleunderhill/Desktop/3w.png"
   inkscape:export-xdpi="300"
   inkscape:export-ydpi="300"
   inkscape:version="1.1.1 (c3084ef, 2021-09-22)"
   xmlns:inkscape="http://www.inkscape.org/namespaces/inkscape"
   xmlns:sodipodi="http://sodipodi.sourceforge.net/DTD/sodipodi-0.dtd"
   xmlns="http://www.w3.org/2000/svg"
   xmlns:svg="http://www.w3.org/2000/svg">
  <sodipodi:namedview
     id="namedview7"
     pagecolor="#ffffff"
     bordercolor="#666666"
     borderopacity="1.0"
     inkscape:pageshadow="2"
     inkscape:pageopacity="1"
     inkscape:pagecheckerboard="true"
     inkscape:document-units="mm"
     showgrid="false"
     inkscape:snap-global="false"
     inkscape:zoom="1.499388"
     inkscape:cx="80.36612"
     inkscape:cy="37.015101"
     inkscape:window-width="1920"
     inkscape:window-height="1027"
     inkscape:window-x="0"
     inkscape:window-y="25"
     inkscape:window-maximized="1"
     inkscape:current-layer="layer1"
     fit-margin-top="0"
     fit-margin-left="0"
     fit-margin-right="0"
     fit-margin-bottom="0"
     inkscape:snap-bbox="true"
     inkscape:snap-bbox-midpoints="false"
     inkscape:bbox-nodes="true"
     inkscape:snap-bbox-edge-midpoints="true"
     inkscape:snap-intersection-paths="true"
     inkscape:object-paths="true"
     inkscape:snap-smooth-nodes="true"
     inkscape:bbox-paths="true"
     inkscape:snap-midpoints="true"
     inkscape:snap-others="false"
     inkscape:snap-center="false"
     inkscape:snap-object-midpoints="false"
     inkscape:snap-text-baseline="false" />
  <defs
     id="defs2">
    <rect
       x="91.630516"
       y="-20.510965"
       width="116.38043"
       height="42.805496"
       id="rect745" />
    <rect
       x="71.49025"
       y="154.24564"
       width="38.128136"
       height="34.228664"
       id="rect19011" />
    <rect
       x="71.49025"
       y="154.24564"
       width="38.128136"
       height="34.228664"
       id="rect23573" />
    <rect
       x="71.49025"
       y="154.24564"
       width="38.128136"
       height="34.228664"
       id="rect3263" />
    <rect
       x="91.630516"
       y="-20.510965"
       width="116.38043"
       height="42.805496"
       id="rect3265" />
  </defs>
  <g
     inkscape:groupmode="layer"
     id="layer2"
     inkscape:label="Base"
     transform="translate(-534.83273,-440.41653)" />
  <g
     inkscape:label="Layer 1"
     inkscape:groupmode="layer"
     id="layer1"
     transform="translate(-320.79329,-541.21881)">
    <rect
       style="opacity:1;fill:#e2edfd;fill-opacity:1;stroke-width:0.111694;stroke-linecap:round;stroke-linejoin:round;paint-order:fill markers stroke"
       id="rect5730"
       width="75.058426"
       height="24.786415"
       x="324.24557"
       y="541.3515"
       ry="0"
       rx="0" />
    <rect
       style="opacity:1;fill:#c9ddfd;fill-opacity:1;stroke:#3da8f3;stroke-width:0.2;stroke-linecap:round;stroke-linejoin:round;stroke-miterlimit:4;stroke-dasharray:0.2, 0.6;stroke-dashoffset:0;stroke-opacity:1;paint-order:fill markers stroke"
       id="rect6901"
       width="8.257988"
       height="8.324357"
       x="324.24557"
       y="549.64343" />
    <circle
       style="opacity:0.107;fill:#605df8;fill-opacity:1;stroke:none;stroke-width:0.915297;stroke-linecap:round;stroke-linejoin:round;stroke-miterlimit:4;stroke-dasharray:none;stroke-opacity:1;paint-order:fill markers stroke"
       id="circle18367"
       cx="328.37457"
       cy="553.8056"
       r="4.1294999" />
    <rect
       style="opacity:0.238;fill:none;fill-opacity:1;stroke:#3da8f3;stroke-width:0.196191;stroke-linecap:round;stroke-linejoin:round;stroke-miterlimit:4;stroke-dasharray:0.196191, 0.588572;stroke-dashoffset:0;stroke-opacity:1;paint-order:fill markers stroke"
       id="rect6817"
       width="8.2617979"
       height="8.0065699"
       x="332.4032"
       y="558.03326" />
    <rect
       style="opacity:0.238;fill:none;fill-opacity:1;stroke:#3da8f3;stroke-width:0.197643;stroke-linecap:round;stroke-linejoin:round;stroke-miterlimit:4;stroke-dasharray:0.197643, 0.592929;stroke-dashoffset:0;stroke-opacity:1;paint-order:fill markers stroke"
       id="rect6899"
       width="8.2603455"
       height="8.1269827"
       x="332.60287"
       y="541.45032" />
    <rect
       style="opacity:0.38834951;fill:#ffffff;fill-opacity:1;stroke:none;stroke-width:0.3703;stroke-linecap:round;stroke-linejoin:round;stroke-miterlimit:4;stroke-dasharray:0.3703, 1.4812;stroke-dashoffset:0;stroke-opacity:1;paint-order:fill markers stroke"
       id="rect26571"
       width="50.082912"
       height="8.2590208"
       x="340.76309"
       y="549.67615" />
    <text
       xml:space="preserve"
       transform="matrix(0.10361823,0,0,0.10361823,328.52583,552.29535)"
       id="text19009"
       style="font-size:18px;line-height:1.25;font-family:'Plus Jakarta Display';-inkscape-font-specification:'Plus Jakarta Display, Normal';white-space:pre;shape-inside:url(#rect19011);fill:#c9ddfd;fill-opacity:1"><tspan
         x="71.490234"
         y="171.39408"
         id="tspan2320"><tspan
           style="font-weight:900;font-family:Linotte;-inkscape-font-specification:'Linotte Heavy'"
           id="tspan2318">X</tspan></tspan></text>
    <text
       xml:space="preserve"
       transform="matrix(0.10361823,0,0,0.10361823,313.35203,536.68115)"
       id="text23571"
       style="font-size:18px;line-height:1.25;font-family:'Plus Jakarta Display';-inkscape-font-specification:'Plus Jakarta Display, Normal';white-space:pre;shape-inside:url(#rect23573);fill:#c9ddfd;fill-opacity:1"><tspan
         x="71.490234"
         y="171.39408"
         id="tspan2324"><tspan
           style="font-weight:900;font-family:Linotte;-inkscape-font-specification:'Linotte Heavy'"
           id="tspan2322">X</tspan></tspan></text>
    <path
       style="opacity:0.238;fill:#3ddef2;fill-opacity:0.607843;stroke:#3da8f3;stroke-width:0.264583px;stroke-linecap:butt;stroke-linejoin:miter;stroke-opacity:1"
       d="m 340.27384,553.80563 h 2.46818"
       id="path7611" />
    <g
       inkscape:label="Layer 1"
       id="layer1-8"
       transform="matrix(0.26592251,0,0,0.26592251,321.36052,586.93667)">
      <g
         id="g277">
        <circle
           style="fill:#5f5df8;fill-opacity:1;stroke:none;stroke-width:3.44196;stroke-linecap:round;stroke-linejoin:round;stroke-miterlimit:4;stroke-dasharray:none;stroke-opacity:1;paint-order:fill markers stroke"
           id="circle156"
           cx="57.434235"
           cy="-124.58907"
           r="15.528901" />
        <g
           id="g6831"
           transform="translate(-0.4182,-1.016604)"
           style="fill:#ffffff">
          <rect
             style="fill:#ffffff;fill-opacity:1;stroke-width:3.6081;stroke-linecap:round;stroke-linejoin:round;paint-order:fill markers stroke"
             id="rect743"
             width="2.6185026"
             height="16.804039"
             x="52.834274"
             y="-131.97449"
             rx="1.2052821"
             ry="1.2472566" />
          <g
             id="g6311"
             transform="matrix(0.86231347,0,0,0.85329596,9.8287899,-18.029547)"
             style="fill:#ffffff">
            <path
               id="path4490"
               style="fill:#ffffff;stroke-width:3.30991;stroke-linecap:round;stroke-linejoin:round;paint-order:fill markers stroke"
               d="m 64.296043,-122.19249 -3.05316,-3.44404 h -9.682982 v 2.83191 0.61213 1.03811 h 11.751476 c 0.545505,0 0.984666,-0.463 0.984666,-1.03811 z m 0,-6.88807 -3.05316,3.44403 h -9.682982 v -2.8319 -0.61213 -1.03811 h 11.751476 c 0.545505,0 0.984666,0.46299 0.984666,1.03811 z" />
          </g>
        </g>
      </g>
      <g
         id="g139">
        <circle
           style="fill:#5f5df8;fill-opacity:1;stroke:none;stroke-width:3.44196;stroke-linecap:round;stroke-linejoin:round;stroke-miterlimit:4;stroke-dasharray:none;stroke-opacity:1;paint-order:fill markers stroke"
           id="circle129"
           cx="57.434235"
           cy="-124.58907"
           r="15.528901" />
        <g
           id="g137"
           transform="translate(-0.4182,-1.016604)"
           style="fill:#ffffff">
          <rect
             style="fill:#ffffff;fill-opacity:1;stroke-width:3.6081;stroke-linecap:round;stroke-linejoin:round;paint-order:fill markers stroke"
             id="rect131"
             width="2.6185026"
             height="16.804039"
             x="52.834274"
             y="-131.97449"
             rx="1.2052821"
             ry="1.2472566" />
          <g
             id="g135"
             transform="matrix(0.86231347,0,0,0.85329596,9.8287899,-18.029547)"
             style="fill:#ffffff">
            <path
               id="path133"
               style="fill:#ffffff;stroke-width:3.30991;stroke-linecap:round;stroke-linejoin:round;paint-order:fill markers stroke"
               d="m 64.296043,-122.19249 -3.05316,-3.44404 h -9.682982 v 2.83191 0.61213 1.03811 h 11.751476 c 0.545505,0 0.984666,-0.463 0.984666,-1.03811 z m 0,-6.88807 -3.05316,3.44403 h -9.682982 v -2.8319 -0.61213 -1.03811 h 11.751476 c 0.545505,0 0.984666,0.46299 0.984666,1.03811 z" />
          </g>
        </g>
      </g>
    </g>
    <path
       d="m 343.63457,557.23409 q -0.42177,0 -0.60814,-0.12751 -0.18636,-0.12751 -0.23541,-0.3335 -0.049,-0.20598 -0.049,-0.44139 v -5.07109 q 0,-0.21579 0.0392,-0.42178 0.0392,-0.20598 0.2256,-0.33349 0.18637,-0.13732 0.63757,-0.12751 h 1.68709 q 0.69642,0 1.31437,0.26483 0.61795,0.26483 1.08876,0.73565 0.48063,0.46101 0.74547,1.07896 0.27464,0.61795 0.27464,1.31436 0,0.71604 -0.27464,1.34379 -0.26484,0.62776 -0.74547,1.10839 -0.47081,0.47081 -1.09857,0.74546 -0.61795,0.26483 -1.33398,0.26483 z m 0.9024,-1.79499 h 0.7945 q 0.4414,0 0.81413,-0.21579 0.37273,-0.2256 0.58852,-0.58852 0.2256,-0.37273 0.2256,-0.82393 0,-0.4512 -0.2256,-0.82393 -0.21579,-0.37273 -0.58852,-0.58852 -0.37273,-0.2256 -0.82393,-0.2256 h -0.7847 z"
       style="font-weight:bold;font-size:18px;line-height:1.25;font-family:Fredoka;-inkscape-font-specification:'Fredoka Bold';white-space:pre;fill:#333333;stroke-width:0.544927"
       id="path4627" />
    <path
       d="m 351.63157,557.33218 q -0.4512,0 -0.91221,-0.17656 -0.46101,-0.18636 -0.85336,-0.51986 -0.38254,-0.3433 -0.61795,-0.81412 -0.2256,-0.48063 -0.2256,-1.06915 0,-0.53948 0.20599,-1.01029 0.20598,-0.47082 0.55909,-0.82393 0.36292,-0.36292 0.82393,-0.56891 0.47082,-0.20598 1.00049,-0.20598 0.72584,0 1.31436,0.35311 0.58852,0.34331 0.94164,0.93183 0.35311,0.58852 0.35311,1.31436 0,0.61795 -0.23541,1.09858 -0.23541,0.48062 -0.61795,0.81412 -0.38253,0.33349 -0.84354,0.50024 -0.4512,0.17656 -0.89259,0.17656 z m -0.0196,-1.79499 q 0.14713,0 0.33349,-0.0687 0.19618,-0.0785 0.3335,-0.25503 0.14713,-0.17656 0.14713,-0.48062 0,-0.24522 -0.1079,-0.42178 -0.0981,-0.17656 -0.28445,-0.27464 -0.18636,-0.0981 -0.43158,-0.0981 -0.21579,0 -0.39235,0.1079 -0.17655,0.0981 -0.28445,0.28445 -0.1079,0.17656 -0.1079,0.41196 0,0.29426 0.13733,0.47082 0.13732,0.17656 0.32368,0.25503 0.18637,0.0687 0.3335,0.0687 z"
       style="font-weight:bold;font-size:18px;line-height:1.25;font-family:Fredoka;-inkscape-font-specification:'Fredoka Bold';white-space:pre;fill:#333333;stroke-width:0.544927"
       id="path4629" />
    <path
       d="m 355.54125,557.23409 q -0.44139,0 -0.62776,-0.12751 -0.18636,-0.13732 -0.2256,-0.34331 -0.0294,-0.20598 -0.0294,-0.42177 v -3.22706 q 0,-0.21579 0.0392,-0.41196 0.0392,-0.19618 0.2256,-0.31388 0.18637,-0.12752 0.62776,-0.12752 0.40216,0 0.57871,0.1079 0.18637,0.0981 0.23541,0.24522 0.049,0.14713 0.0392,0.27464 0,0.11771 0.0196,0.14713 l -0.0785,0.0589 q -0.01,-0.14713 0.1079,-0.29426 0.12751,-0.14713 0.32369,-0.26483 0.20598,-0.12752 0.43158,-0.19618 0.23541,-0.0785 0.44139,-0.0785 0.49043,0 0.86316,0.18637 0.37274,0.18636 0.61795,0.52967 0.25503,0.33349 0.38254,0.78469 0.12751,0.4512 0.12751,0.98087 v 1.60863 q 0,0.21579 -0.0392,0.42177 -0.0392,0.20599 -0.2256,0.3335 -0.17656,0.12751 -0.62776,0.12751 -0.4512,0 -0.63756,-0.12751 -0.18637,-0.13732 -0.2256,-0.34331 -0.0392,-0.20598 -0.0392,-0.42177 v -1.59882 q 0,-0.2256 -0.0883,-0.38254 -0.0785,-0.15693 -0.23541,-0.2354 -0.14713,-0.0883 -0.37273,-0.0883 -0.21579,0 -0.38254,0.0883 -0.15694,0.0883 -0.24522,0.24521 -0.0883,0.15694 -0.0883,0.37273 v 1.60863 q 0,0.21579 -0.0392,0.42177 -0.0392,0.20599 -0.2256,0.3335 -0.17656,0.12751 -0.62776,0.12751 z"
       style="font-weight:bold;font-size:18px;line-height:1.25;font-family:Fredoka;-inkscape-font-specification:'Fredoka Bold';white-space:pre;fill:#333333;stroke-width:0.544927"
       id="path4631" />
    <path
       d="m 362.66635,557.33218 q -0.4512,0 -0.91221,-0.17656 -0.46101,-0.18636 -0.85336,-0.51986 -0.38254,-0.3433 -0.61795,-0.81412 -0.2256,-0.48063 -0.2256,-1.06915 0,-0.53948 0.20599,-1.01029 0.20598,-0.47082 0.55909,-0.82393 0.36292,-0.36292 0.82393,-0.56891 0.47082,-0.20598 1.00049,-0.20598 0.72584,0 1.31436,0.35311 0.58852,0.34331 0.94164,0.93183 0.35311,0.58852 0.35311,1.31436 0,0.61795 -0.23541,1.09858 -0.23541,0.48062 -0.61795,0.81412 -0.38253,0.33349 -0.84354,0.50024 -0.4512,0.17656 -0.89259,0.17656 z m -0.0196,-1.79499 q 0.14713,0 0.33349,-0.0687 0.19618,-0.0785 0.3335,-0.25503 0.14713,-0.17656 0.14713,-0.48062 0,-0.24522 -0.1079,-0.42178 -0.0981,-0.17656 -0.28445,-0.27464 -0.18636,-0.0981 -0.43158,-0.0981 -0.21579,0 -0.39235,0.1079 -0.17655,0.0981 -0.28445,0.28445 -0.1079,0.17656 -0.1079,0.41196 0,0.29426 0.13733,0.47082 0.13732,0.17656 0.32368,0.25503 0.18637,0.0687 0.3335,0.0687 z"
       style="font-weight:bold;font-size:18px;line-height:1.25;font-family:Fredoka;-inkscape-font-specification:'Fredoka Bold';white-space:pre;fill:#333333;stroke-width:0.544927"
       id="path4633" />
    <path
       d="m 366.57603,557.2439 q -0.44139,0 -0.62776,-0.12751 -0.18636,-0.13732 -0.2256,-0.34331 -0.0294,-0.21579 -0.0294,-0.43158 v -3.19763 q 0,-0.2256 0.0392,-0.42178 0.0392,-0.20598 0.2256,-0.33349 0.18637,-0.12752 0.62776,-0.12752 0.43158,0 0.60814,0.11771 0.18636,0.1177 0.2256,0.26483 0.0392,0.13733 0.0392,0.21579 l -0.15694,-0.0589 q 0,0 0.0785,-0.0883 0.0785,-0.0883 0.2256,-0.20598 0.15694,-0.1177 0.36293,-0.20598 0.21579,-0.0883 0.48062,-0.0883 0.0883,0 0.21579,0.0196 0.13732,0.01 0.28445,0.049 0.15694,0.0392 0.28446,0.11771 0.13732,0.0785 0.21579,0.20598 0.0883,0.12751 0.0883,0.31388 0,0.49043 -0.2158,0.83374 -0.20598,0.3433 -0.54928,0.3433 -0.18637,0 -0.26484,-0.0196 -0.0785,-0.0294 -0.1177,-0.049 -0.0294,-0.0294 -0.0785,-0.049 -0.0392,-0.0294 -0.15694,-0.0294 -0.14713,0 -0.27464,0.0392 -0.11771,0.0294 -0.21579,0.0981 -0.0883,0.0687 -0.13733,0.16675 -0.049,0.0883 -0.049,0.19617 v 1.9127 q 0,0.21579 -0.0392,0.42177 -0.0392,0.20598 -0.2256,0.3335 -0.18637,0.12751 -0.63757,0.12751 z"
       style="font-weight:bold;font-size:18px;line-height:1.25;font-family:Fredoka;-inkscape-font-specification:'Fredoka Bold';white-space:pre;fill:#333333;stroke-width:0.544927"
       id="path4635" />
    <path
       d="m 372.57543,557.1262 q -0.48063,0 -0.83374,-0.19618 -0.35312,-0.19617 -0.57872,-0.52967 -0.2256,-0.3433 -0.33349,-0.77488 -0.1079,-0.43159 -0.0981,-0.91221 0.01,-0.47082 0.11771,-0.91221 0.1177,-0.44139 0.3433,-0.7847 0.2256,-0.3433 0.5689,-0.53947 0.34331,-0.20599 0.81413,-0.20599 0.43158,0 0.83373,0.20599 0.41197,0.20598 0.73566,0.55909 0.32368,0.34331 0.51005,0.7847 0.18636,0.44139 0.18636,0.91221 0,0.49043 -0.18636,0.93182 -0.18637,0.43158 -0.51005,0.76508 -0.31388,0.32369 -0.72585,0.51005 -0.40215,0.18637 -0.84354,0.18637 z m -1.81461,2.19714 q -0.43159,0 -0.61795,-0.12751 -0.18637,-0.12751 -0.2256,-0.32369 -0.0294,-0.19617 -0.0294,-0.41196 v -5.32612 q 0,-0.21579 0.0294,-0.41197 0.0392,-0.19617 0.21579,-0.32368 0.18637,-0.13733 0.61795,-0.13733 0.3433,0 0.5689,0.0981 0.2256,0.0883 0.32369,0.28445 v 5.80675 q 0.0196,0.21579 -0.0294,0.41197 -0.0392,0.20598 -0.2256,0.33349 -0.18636,0.12751 -0.62775,0.12751 z m 1.5792,-3.86462 q 0.19617,0 0.35311,-0.0981 0.16675,-0.0981 0.26483,-0.25502 0.0981,-0.16675 0.0981,-0.35312 0,-0.19617 -0.0981,-0.35311 -0.0883,-0.16675 -0.25502,-0.25503 -0.15694,-0.0981 -0.35311,-0.0981 -0.19618,0 -0.36293,0.0981 -0.15694,0.0981 -0.25502,0.25503 -0.0883,0.15694 -0.0883,0.35311 0,0.18637 0.0981,0.35312 0.0981,0.15693 0.25502,0.25502 0.15694,0.0981 0.34331,0.0981 z"
       style="font-weight:bold;font-size:18px;line-height:1.25;font-family:Fredoka;-inkscape-font-specification:'Fredoka Bold';white-space:pre;fill:#333333;stroke-width:0.544927"
       id="path4637" />
    <path
       d="m 377.68591,557.33218 q -0.4512,0 -0.91221,-0.17656 -0.46101,-0.18636 -0.85336,-0.51986 -0.38254,-0.3433 -0.61795,-0.81412 -0.2256,-0.48063 -0.2256,-1.06915 0,-0.53948 0.20599,-1.01029 0.20598,-0.47082 0.55909,-0.82393 0.36292,-0.36292 0.82393,-0.56891 0.47082,-0.20598 1.00049,-0.20598 0.72584,0 1.31436,0.35311 0.58853,0.34331 0.94164,0.93183 0.35311,0.58852 0.35311,1.31436 0,0.61795 -0.23541,1.09858 -0.23541,0.48062 -0.61794,0.81412 -0.38254,0.33349 -0.84355,0.50024 -0.4512,0.17656 -0.89259,0.17656 z m -0.0196,-1.79499 q 0.14713,0 0.3335,-0.0687 0.19617,-0.0785 0.33349,-0.25503 0.14713,-0.17656 0.14713,-0.48062 0,-0.24522 -0.10789,-0.42178 -0.0981,-0.17656 -0.28446,-0.27464 -0.18636,-0.0981 -0.43158,-0.0981 -0.21579,0 -0.39235,0.1079 -0.17655,0.0981 -0.28445,0.28445 -0.10789,0.17656 -0.10789,0.41196 0,0.29426 0.13732,0.47082 0.13732,0.17656 0.32368,0.25503 0.18637,0.0687 0.3335,0.0687 z"
       style="font-weight:bold;font-size:18px;line-height:1.25;font-family:Fredoka;-inkscape-font-specification:'Fredoka Bold';white-space:pre;fill:#333333;stroke-width:0.544927"
       id="path4639" />
    <path
       d="m 381.59559,557.2439 q -0.44139,0 -0.62775,-0.12751 -0.18637,-0.13732 -0.2256,-0.34331 -0.0294,-0.21579 -0.0294,-0.43158 v -3.19763 q 0,-0.2256 0.0392,-0.42178 0.0392,-0.20598 0.2256,-0.33349 0.18637,-0.12752 0.62776,-0.12752 0.43158,0 0.60814,0.11771 0.18636,0.1177 0.2256,0.26483 0.0392,0.13733 0.0392,0.21579 l -0.15693,-0.0589 q 0,0 0.0785,-0.0883 0.0785,-0.0883 0.2256,-0.20598 0.15694,-0.1177 0.36293,-0.20598 0.21579,-0.0883 0.48062,-0.0883 0.0883,0 0.21579,0.0196 0.13733,0.01 0.28446,0.049 0.15693,0.0392 0.28445,0.11771 0.13732,0.0785 0.21579,0.20598 0.0883,0.12751 0.0883,0.31388 0,0.49043 -0.21579,0.83374 -0.20599,0.3433 -0.54929,0.3433 -0.18637,0 -0.26484,-0.0196 -0.0785,-0.0294 -0.1177,-0.049 -0.0294,-0.0294 -0.0785,-0.049 -0.0392,-0.0294 -0.15694,-0.0294 -0.14713,0 -0.27464,0.0392 -0.11771,0.0294 -0.21579,0.0981 -0.0883,0.0687 -0.13732,0.16675 -0.049,0.0883 -0.049,0.19617 v 1.9127 q 0,0.21579 -0.0392,0.42177 -0.0392,0.20598 -0.2256,0.3335 -0.18637,0.12751 -0.63757,0.12751 z"
       style="font-weight:bold;font-size:18px;line-height:1.25;font-family:Fredoka;-inkscape-font-specification:'Fredoka Bold';white-space:pre;fill:#333333;stroke-width:0.544927"
       id="path4641" />
    <path
       d="m 387.6146,557.2439 q -0.51986,0 -0.9024,-0.1177 -0.38253,-0.11771 -0.63756,-0.36293 -0.24522,-0.24521 -0.37273,-0.61794 -0.11771,-0.37273 -0.11771,-0.87298 v -3.80577 q 0,-0.2256 0.0392,-0.41196 0.0392,-0.19618 0.2256,-0.31388 0.18636,-0.12752 0.62776,-0.12752 0.43158,0 0.61794,0.13733 0.18637,0.12751 0.2256,0.33349 0.0392,0.20598 0.0392,0.42178 v 3.67826 q 0,0.10789 0.01,0.18636 0.0196,0.0687 0.049,0.1079 0.0294,0.0392 0.0785,0.0589 0.049,0.0196 0.12751,0.0196 0.25503,0 0.4512,0.0392 0.20599,0.0392 0.31388,0.20598 0.11771,0.16675 0.11771,0.5591 0,0.44139 -0.13733,0.62775 -0.13732,0.18637 -0.3433,0.2158 -0.20598,0.0392 -0.41197,0.0392 z m -2.23638,-4.92396 h 1.14762 l 1.3536,-0.049 q 0.21579,0 0.41196,0.0392 0.20599,0.0392 0.3335,0.2256 0.13732,0.18636 0.13732,0.63756 0,0.41197 -0.13732,0.59833 -0.12751,0.18637 -0.3335,0.23541 -0.19617,0.049 -0.42177,0.049 l -1.2457,-0.0294 h -1.28494 q -0.3335,-0.0196 -0.46101,-0.21579 -0.12751,-0.19618 -0.12751,-0.64738 0,-0.42177 0.15693,-0.62775 0.15694,-0.21579 0.47082,-0.21579 z"
       style="font-weight:bold;font-size:18px;line-height:1.25;font-family:Fredoka;-inkscape-font-specification:'Fredoka Bold';white-space:pre;fill:#333333;stroke-width:0.544927"
       id="path4643" />
    <rect
       style="opacity:0.238;fill:none;fill-opacity:1;stroke:#3da8f3;stroke-width:0.197643;stroke-linecap:round;stroke-linejoin:round;stroke-miterlimit:4;stroke-dasharray:0.197643, 0.592929;stroke-dashoffset:0;stroke-opacity:1;paint-order:fill markers stroke"
       id="rect5115"
       width="8.2603455"
       height="8.1269827"
       x="382.48685"
       y="541.31763" />
    <rect
       style="opacity:0.238;fill:none;fill-opacity:1;stroke:#3da8f3;stroke-width:0.197643;stroke-linecap:round;stroke-linejoin:round;stroke-miterlimit:4;stroke-dasharray:0.197643, 0.592929;stroke-dashoffset:0;stroke-opacity:1;paint-order:fill markers stroke"
       id="rect5117"
       width="8.2603455"
       height="8.1269827"
       x="382.48685"
       y="558.00586" />
    <rect
       style="opacity:0.238;fill:none;fill-opacity:1;stroke:#3da8f3;stroke-width:0.197643;stroke-linecap:round;stroke-linejoin:round;stroke-miterlimit:4;stroke-dasharray:0.197643, 0.592929;stroke-dashoffset:0;stroke-opacity:1;paint-order:fill markers stroke"
       id="rect5199"
       width="8.2603455"
       height="8.1269827"
       x="390.94482"
       y="549.68121" />
    <path
       style="opacity:0.238;fill:#3ddef2;fill-opacity:0.607843;stroke:#3da8f3;stroke-width:0.264583px;stroke-linecap:butt;stroke-linejoin:miter;stroke-opacity:1"
       d="M 388.37782,553.80563 H 390.846"
       id="path5325" />
    <g
       id="g543"
       transform="matrix(0.26592251,0,0,0.26592251,321.36052,586.93667)">
      <circle
         style="fill:#5f5df8;fill-opacity:1;stroke:none;stroke-width:3.44196;stroke-linecap:round;stroke-linejoin:round;stroke-miterlimit:4;stroke-dasharray:none;stroke-opacity:1;paint-order:fill markers stroke"
         id="circle533"
         cx="57.434235"
         cy="-124.58907"
         r="15.528901" />
      <g
         id="g541"
         transform="translate(-0.4182,-1.016604)"
         style="fill:#ffffff">
        <rect
           style="fill:#ffffff;fill-opacity:1;stroke-width:3.6081;stroke-linecap:round;stroke-linejoin:round;paint-order:fill markers stroke"
           id="rect535"
           width="2.6185026"
           height="16.804039"
           x="52.834274"
           y="-131.97449"
           rx="1.2052821"
           ry="1.2472566" />
        <g
           id="g539"
           transform="matrix(0.86231347,0,0,0.85329596,9.8287899,-18.029547)"
           style="fill:#ffffff">
          <path
             id="path537"
             style="fill:#ffffff;stroke-width:3.30991;stroke-linecap:round;stroke-linejoin:round;paint-order:fill markers stroke"
             d="m 64.296043,-122.19249 -3.05316,-3.44404 h -9.682982 v 2.83191 0.61213 1.03811 h 11.751476 c 0.545505,0 0.984666,-0.463 0.984666,-1.03811 z m 0,-6.88807 -3.05316,3.44403 h -9.682982 v -2.8319 -0.61213 -1.03811 h 11.751476 c 0.545505,0 0.984666,0.46299 0.984666,1.03811 z" />
        </g>
      </g>
    </g>
    <g
       id="g553"
       transform="matrix(0.26592251,0,0,0.26592251,312.671,586.6663)"
       style="fill:#ffffff;opacity:0.115">
      <rect
         style="fill:#ffffff;fill-opacity:1;stroke-width:3.6081;stroke-linecap:round;stroke-linejoin:round;paint-order:fill markers stroke"
         id="rect547"
         width="2.6185026"
         height="16.804039"
         x="52.834274"
         y="-131.97449"
         rx="1.2052821"
         ry="1.2472566" />
      <g
         id="g551"
         transform="matrix(0.86231347,0,0,0.85329596,9.8287899,-18.029547)"
         style="fill:#ffffff">
        <path
           id="path549"
           style="fill:#ffffff;stroke-width:3.30991;stroke-linecap:round;stroke-linejoin:round;paint-order:fill markers stroke"
           d="m 64.296043,-122.19249 -3.05316,-3.44404 h -9.682982 v 2.83191 0.61213 1.03811 h 11.751476 c 0.545505,0 0.984666,-0.463 0.984666,-1.03811 z m 0,-6.88807 -3.05316,3.44403 h -9.682982 v -2.8319 -0.61213 -1.03811 h 11.751476 c 0.545505,0 0.984666,0.46299 0.984666,1.03811 z" />
      </g>
    </g>
  </g>
</svg>
