<svg width="186" height="128" viewBox="0 0 186 128" fill="none" xmlns="http://www.w3.org/2000/svg">
<rect x="1.32294" y="1.32294" width="182.566" height="124.357" rx="14.5524" fill="white" stroke="#D9D9D9" stroke-width="2.64589"/>
<path fill-rule="evenodd" clip-rule="evenodd" d="M117.073 100.702C137.016 100.702 153.183 84.3477 153.183 64.1733C153.183 43.9989 137.016 27.6443 117.073 27.6443C108.135 27.6443 99.956 30.9292 93.6504 36.3706C87.3449 30.9292 79.1656 27.6444 70.2279 27.6444C50.285 27.6444 34.1181 43.999 34.1181 64.1734C34.1181 84.3478 50.285 100.702 70.2279 100.702C79.1657 100.702 87.345 97.4175 93.6505 91.9761C99.956 97.4175 108.135 100.702 117.073 100.702Z" fill="#ED0006"/>
<path fill-rule="evenodd" clip-rule="evenodd" d="M93.6505 91.976C101.415 85.276 106.338 75.3062 106.338 64.1733C106.338 53.0404 101.415 43.0706 93.6505 36.3706C99.956 30.9291 108.135 27.6443 117.073 27.6443C137.016 27.6443 153.183 43.9989 153.183 64.1733C153.183 84.3477 137.016 100.702 117.073 100.702C108.135 100.702 99.956 97.4174 93.6505 91.976Z" fill="#F9A000"/>
<path fill-rule="evenodd" clip-rule="evenodd" d="M93.6506 91.9758C101.415 85.2757 106.338 75.3061 106.338 64.1732C106.338 53.0404 101.415 43.0707 93.6506 36.3706C85.8866 43.0707 80.9635 53.0404 80.9635 64.1732C80.9635 75.3061 85.8866 85.2757 93.6506 91.9758Z" fill="#FF5E00"/>
</svg>
