<?xml version="1.0" encoding="UTF-8" standalone="no"?>
<svg
   width="14"
   height="16"
   viewBox="0 0 14 16"
   fill="none"
   version="1.1"
   id="svg826"
   sodipodi:docname="receipt-tax-icon-original.svg"
   inkscape:version="1.1.1 (c3084ef, 2021-09-22)"
   xmlns:inkscape="http://www.inkscape.org/namespaces/inkscape"
   xmlns:sodipodi="http://sodipodi.sourceforge.net/DTD/sodipodi-0.dtd"
   xmlns="http://www.w3.org/2000/svg"
   xmlns:svg="http://www.w3.org/2000/svg">
  <defs
     id="defs830" />
  <sodipodi:namedview
     id="namedview828"
     pagecolor="#ffffff"
     bordercolor="#666666"
     borderopacity="1.0"
     inkscape:pageshadow="2"
     inkscape:pageopacity="0.0"
     inkscape:pagecheckerboard="0"
     showgrid="false"
     fit-margin-top="0"
     fit-margin-left="0"
     fit-margin-right="0"
     fit-margin-bottom="0"
     inkscape:zoom="37.25"
     inkscape:cx="6.9932886"
     inkscape:cy="7.9865772"
     inkscape:window-width="1920"
     inkscape:window-height="1027"
     inkscape:window-x="0"
     inkscape:window-y="25"
     inkscape:window-maximized="1"
     inkscape:current-layer="svg826" />
  <path
     fill-rule="evenodd"
     clip-rule="evenodd"
     d="M 2,0 C 0.89543,0 0,0.89543 0,2 V 16 L 3.5,14 7,16 10.5,14 14,16 V 2 C 14,0.89543 13.1046,0 12,0 Z M 4.5,3 C 3.67157,3 3,3.67157 3,4.5 3,5.32843 3.67157,6 4.5,6 5.32843,6 6,5.32843 6,4.5 6,3.67157 5.32843,3 4.5,3 Z m 6.2071,0.29289 c -0.3905,-0.39052 -1.0237,-0.39052 -1.4142,0 L 3.29289,9.2929 c -0.39052,0.3905 -0.39052,1.0237 0,1.4142 0.39053,0.3905 1.02369,0.3905 1.41422,0 L 10.7071,4.70711 c 0.3905,-0.39053 0.3905,-1.02369 0,-1.41422 z M 9.5,8 C 8.6716,8 8,8.6716 8,9.5 8,10.3284 8.6716,11 9.5,11 10.3284,11 11,10.3284 11,9.5 11,8.6716 10.3284,8 9.5,8 Z"
     fill="#374151"
     id="path824"
     style="fill:#3596f3;fill-opacity:1" />
</svg>
