<?xml version="1.0" encoding="UTF-8" standalone="no"?>
<svg
   width="15"
   height="17.142857"
   viewBox="0 0 15 17.142857"
   fill="none"
   version="1.1"
   id="svg826"
   sodipodi:docname="receipt.svg"
   inkscape:version="1.1.1 (c3084ef, 2021-09-22)"
   xmlns:inkscape="http://www.inkscape.org/namespaces/inkscape"
   xmlns:sodipodi="http://sodipodi.sourceforge.net/DTD/sodipodi-0.dtd"
   xmlns="http://www.w3.org/2000/svg"
   xmlns:svg="http://www.w3.org/2000/svg">
  <defs
     id="defs830" />
  <sodipodi:namedview
     id="namedview828"
     pagecolor="#ffffff"
     bordercolor="#666666"
     borderopacity="1.0"
     inkscape:pageshadow="2"
     inkscape:pageopacity="0.0"
     inkscape:pagecheckerboard="0"
     showgrid="false"
     fit-margin-top="0"
     fit-margin-left="0"
     fit-margin-right="0"
     fit-margin-bottom="0"
     inkscape:zoom="18.625"
     inkscape:cx="7.0067114"
     inkscape:cy="7.9731544"
     inkscape:window-width="1920"
     inkscape:window-height="1027"
     inkscape:window-x="0"
     inkscape:window-y="25"
     inkscape:window-maximized="1"
     inkscape:current-layer="svg826" />
  <path
     fill-rule="evenodd"
     clip-rule="evenodd"
     d="M 2.1428571,0 C 0.95938929,0 0,0.95938929 0,2.1428571 V 17.142857 L 3.75,15 7.5,17.142857 11.25,15 15,17.142857 V 2.1428571 C 15,0.95938929 14.040643,0 12.857143,0 Z m 2.6785715,3.2142857 c -0.8876036,0 -1.6071429,0.7195393 -1.6071429,1.6071429 0,0.8876035 0.7195393,1.6071428 1.6071429,1.6071428 0.8876035,0 1.6071428,-0.7195393 1.6071428,-1.6071428 0,-0.8876036 -0.7195393,-1.6071429 -1.6071428,-1.6071429 z m 6.6504644,0.3138107 c -0.418393,-0.4184143 -1.096822,-0.4184143 -1.5152144,0 L 3.5280964,9.9566786 c -0.4184143,0.4183924 -0.4184143,1.0968214 0,1.5152144 0.418425,0.418393 1.0968107,0.418393 1.5152357,0 L 11.471893,5.0433321 c 0.418393,-0.418425 0.418393,-1.0968107 0,-1.5152357 z m -1.293322,5.0433322 c -0.887571,0 -1.6071424,0.7195714 -1.6071424,1.6071424 0,0.887572 0.7195714,1.607143 1.6071424,1.607143 0.887572,0 1.607143,-0.719571 1.607143,-1.607143 0,-0.887571 -0.719571,-1.6071424 -1.607143,-1.6071424 z"
     fill="#374151"
     id="path824"
     style="fill:#3596f3;fill-opacity:1;stroke-width:1.07143" />
</svg>
