<svg width="186" height="128" viewBox="0 0 186 128" fill="none" xmlns="http://www.w3.org/2000/svg">
<rect x="1.32294" y="1.32294" width="182.566" height="124.357" rx="14.5524" fill="white" stroke="#D9D9D9" stroke-width="2.64589"/>
<path fill-rule="evenodd" clip-rule="evenodd" d="M56.2264 86.035H45.0062L36.5924 53.9358C36.193 52.4592 35.3451 51.1539 34.0978 50.5386C30.985 48.9925 27.5549 47.7621 23.813 47.1415V45.9057H41.8879C44.3825 45.9057 46.2535 47.7621 46.5653 49.9181L50.9309 73.0723L62.1457 45.9057H73.0541L56.2264 86.035ZM79.2906 86.035H68.694L77.4197 45.9057H88.0163L79.2906 86.035ZM101.726 57.0225C102.038 54.8612 103.908 53.6254 106.091 53.6254C109.521 53.3151 113.258 53.9357 116.376 55.4764L118.247 46.8364C115.129 45.6006 111.699 44.98 108.586 44.98C98.3011 44.98 90.8173 50.5385 90.8173 58.253C90.8173 64.1218 96.1183 67.2033 99.8602 69.0597C103.908 70.9108 105.468 72.1466 105.156 73.9977C105.156 76.7742 102.038 78.0101 98.9247 78.0101C95.1828 78.0101 91.4409 77.0845 88.0163 75.5384L86.1454 84.1838C89.8873 85.7246 93.9355 86.3452 97.6774 86.3452C109.21 86.6501 116.376 81.0969 116.376 72.7618C116.376 62.2654 101.726 61.6502 101.726 57.0225ZM153.461 86.035L145.048 45.9057H136.01C134.139 45.9057 132.268 47.1415 131.645 48.9925L116.064 86.035H126.973L129.15 80.1716H142.553L143.8 86.035H153.461ZM137.569 56.7121L140.682 71.8361H131.956L137.569 56.7121Z" fill="#172B85"/>
</svg>
